M48
; DRILL file {KiCad (7.0.0)} date Mon Mar  6 13:53:01 2023
; FORMAT={-:-/ absolute / inch / decimal}
; #@! TF.CreationDate,2023-03-06T13:53:01-05:00
; #@! TF.GenerationSoftware,Kicad,Pcbnew,(7.0.0)
; #@! TF.FileFunction,MixedPlating,1,2
FMAT,2
INCH
; #@! TA.AperFunction,Plated,PTH,ViaDrill
T1C0.0157
; #@! TA.AperFunction,Plated,PTH,ComponentDrill
T2C0.0394
; #@! TA.AperFunction,NonPlated,NPTH,ComponentDrill
T3C0.0630
%
G90
G05
T1
X5.0Y-2.9
X5.4Y-3.3
X5.5Y-3.2715
X5.6Y-3.2
X5.7Y-3.3
X6.2Y-3.3
X6.3Y-3.3
X6.3Y-4.6
X6.5Y-3.3
X6.6Y-3.4
X6.6Y-3.5059
X7.1Y-2.9892
X7.6Y-3.5
T2
X4.3Y-3.0
X4.3Y-3.3
X4.4Y-3.0
X4.4Y-3.3
X4.5Y-3.0
X4.5Y-3.3
X4.6Y-3.0
X4.6Y-3.3
X4.7Y-3.0
X4.7Y-3.3
X4.8Y-3.0
X4.8Y-3.3
X5.1Y-3.8
X5.1Y-3.9
X5.1Y-4.0
X5.1Y-4.1
X5.1Y-4.2
X5.1Y-4.3
X5.1Y-4.4
X5.1Y-4.5
X5.2Y-3.1
X5.2Y-3.4
X5.24Y-2.8
X5.3Y-3.1
X5.3Y-3.4
X5.34Y-2.8
X5.4Y-3.1
X5.4Y-3.4
X5.44Y-2.8
X5.5Y-3.1
X5.5Y-3.4
X5.5Y-3.8
X5.5Y-3.9
X5.5Y-4.0
X5.5Y-4.1
X5.5Y-4.2
X5.5Y-4.3
X5.5Y-4.4
X5.5Y-4.5
X5.54Y-2.8
X5.6Y-3.1
X5.6Y-3.4
X5.6Y-4.69
X5.64Y-2.8
X5.7Y-3.1
X5.7Y-3.4
X5.7Y-4.69
X5.74Y-2.8
X5.8Y-4.69
X5.84Y-2.8
X5.9Y-4.69
X5.94Y-2.8
X6.0Y-3.1
X6.0Y-3.4
X6.0Y-4.69
X6.04Y-2.8
X6.1Y-3.1
X6.1Y-3.4
X6.1Y-3.7
X6.1Y-3.8
X6.1Y-3.9
X6.1Y-4.2
X6.1Y-4.3
X6.1Y-4.4
X6.1Y-4.69
X6.14Y-2.8
X6.2Y-3.1
X6.2Y-3.4
X6.2Y-4.69
X6.3Y-2.8
X6.3Y-3.1
X6.3Y-3.4
X6.3Y-4.69
X6.4Y-2.8
X6.4Y-3.1
X6.4Y-3.4
X6.5Y-2.8
X6.5Y-3.1
X6.5Y-3.4
X6.5Y-4.7
X6.6Y-2.8
X6.6Y-3.7
X6.6Y-3.8
X6.6Y-3.9
X6.6Y-4.2
X6.6Y-4.3
X6.6Y-4.4
X6.6Y-4.7
X6.7Y-2.8
X6.7Y-4.7
X6.8Y-2.8
X6.8Y-3.1
X6.8Y-3.4
X6.8Y-4.7
X6.9Y-2.8
X6.9Y-3.1
X6.9Y-3.4
X6.9Y-4.7
X7.0Y-2.8
X7.0Y-3.1
X7.0Y-3.4
X7.0Y-3.7
X7.0Y-3.8
X7.0Y-3.9
X7.0Y-4.2
X7.0Y-4.3
X7.0Y-4.4
X7.0Y-4.7
X7.1Y-3.1
X7.1Y-3.4
X7.1Y-4.7
X7.2Y-2.8
X7.2Y-3.1
X7.2Y-3.4
X7.2Y-4.7
X7.3Y-2.8
X7.3Y-3.1
X7.3Y-3.4
X7.4Y-2.8
X7.4Y-3.7
X7.4Y-3.8
X7.4Y-3.9
X7.4Y-4.2
X7.4Y-4.3
X7.4Y-4.4
X7.4Y-4.7
X7.5Y-2.8
X7.5Y-4.7
X7.6Y-2.8
X7.6Y-4.7
X7.7Y-2.8
X7.7Y-4.7
X7.8Y-2.8
X7.8Y-4.7
X7.9Y-2.8
X7.9Y-3.0
X7.9Y-3.1
X7.9Y-3.2
X7.9Y-3.3
X7.9Y-3.4
X7.9Y-3.5
X7.9Y-3.6
X7.9Y-3.7
X7.9Y-3.8
X7.9Y-3.9
X7.9Y-4.0
X7.9Y-4.1
X7.9Y-4.2
X7.9Y-4.3
X7.9Y-4.4
X7.9Y-4.5
X7.9Y-4.7
X8.0Y-4.7
X8.1Y-4.7
X8.2Y-2.8
X8.2Y-2.9
X8.2Y-3.0
X8.2Y-3.1
X8.2Y-3.2
X8.2Y-3.3
X8.2Y-3.4
X8.2Y-3.5
X8.2Y-3.6
X8.2Y-3.7
X8.2Y-3.8
X8.2Y-3.9
X8.2Y-4.0
X8.2Y-4.1
X8.2Y-4.2
X8.2Y-4.3
X8.2Y-4.4
X8.2Y-4.5
X8.3Y-2.8
X8.3Y-2.9
X8.3Y-3.0
X8.3Y-3.1
X8.3Y-3.2
X8.3Y-3.3
X8.3Y-3.4
X8.3Y-3.5
X8.3Y-3.6
X8.3Y-3.7
X8.3Y-3.8
X8.3Y-3.9
X8.3Y-4.0
X8.3Y-4.1
X8.3Y-4.2
X8.3Y-4.3
X8.3Y-4.4
X8.3Y-4.5
T3
X4.1213Y-4.5
T2
G00X4.2295Y-4.3228
M15
G01X4.1705Y-4.3228
M16
G05
G00X4.2295Y-4.6772
M15
G01X4.1705Y-4.6772
M16
G05
G00X4.2394Y-4.4744
M15
G01X4.2394Y-4.5256
M16
G05
G00X4.4756Y-4.4606
M15
G01X4.4756Y-4.5394
M16
G05
T0
M30
