%TF.GenerationSoftware,KiCad,Pcbnew,(7.0.0)*%
%TF.CreationDate,2023-03-13T14:58:07-04:00*%
%TF.ProjectId,warmingTray_v2,7761726d-696e-4675-9472-61795f76322e,rev?*%
%TF.SameCoordinates,Original*%
%TF.FileFunction,Soldermask,Bot*%
%TF.FilePolarity,Negative*%
%FSLAX46Y46*%
G04 Gerber Fmt 4.6, Leading zero omitted, Abs format (unit mm)*
G04 Created by KiCad (PCBNEW (7.0.0)) date 2023-03-13 14:58:07*
%MOMM*%
%LPD*%
G01*
G04 APERTURE LIST*
%ADD10R,1.700000X1.700000*%
%ADD11O,1.700000X1.700000*%
%ADD12C,1.600000*%
%ADD13R,2.000000X4.000000*%
%ADD14O,2.000000X3.300000*%
%ADD15O,3.500000X2.000000*%
G04 APERTURE END LIST*
D10*
%TO.C,PAD5-1*%
X129412999Y-113156999D03*
D11*
X129412999Y-110616999D03*
X129412999Y-108076999D03*
X129412999Y-105536999D03*
X129412999Y-102996999D03*
X129412999Y-100456999D03*
X129412999Y-97916999D03*
X129412999Y-95376999D03*
%TD*%
D10*
%TO.C,P1*%
X142239999Y-119125999D03*
D11*
X144779999Y-119125999D03*
X147319999Y-119125999D03*
X149859999Y-119125999D03*
X152399999Y-119125999D03*
X154939999Y-119125999D03*
X157479999Y-119125999D03*
X160019999Y-119125999D03*
%TD*%
D10*
%TO.C,TR4*%
X187959999Y-99059999D03*
D11*
X187959999Y-96519999D03*
X187959999Y-93979999D03*
%TD*%
D10*
%TO.C,TR6*%
X167639999Y-111759999D03*
D11*
X167639999Y-109219999D03*
X167639999Y-106679999D03*
%TD*%
D10*
%TO.C,BO5*%
X109219999Y-83819999D03*
D11*
X111759999Y-83819999D03*
X114299999Y-83819999D03*
X116839999Y-83819999D03*
X119379999Y-83819999D03*
X121919999Y-83819999D03*
%TD*%
D10*
%TO.C,TR5*%
X154939999Y-111759999D03*
D11*
X154939999Y-109219999D03*
X154939999Y-106679999D03*
%TD*%
D10*
%TO.C,BO8*%
X172719999Y-86359999D03*
D11*
X175259999Y-86359999D03*
X177799999Y-86359999D03*
X180339999Y-86359999D03*
X182879999Y-86359999D03*
X185419999Y-86359999D03*
%TD*%
D10*
%TO.C,BO3*%
X152399999Y-78739999D03*
D11*
X154939999Y-78739999D03*
X157479999Y-78739999D03*
X160019999Y-78739999D03*
X162559999Y-78739999D03*
X165099999Y-78739999D03*
%TD*%
D10*
%TO.C,TR1*%
X154939999Y-99059999D03*
D11*
X154939999Y-96519999D03*
X154939999Y-93979999D03*
%TD*%
D10*
%TO.C,BO7*%
X152399999Y-86359999D03*
D11*
X154939999Y-86359999D03*
X157479999Y-86359999D03*
X160019999Y-86359999D03*
X162559999Y-86359999D03*
X165099999Y-86359999D03*
%TD*%
D10*
%TO.C,P4*%
X208279999Y-71119999D03*
D11*
X210819999Y-71119999D03*
X208279999Y-73659999D03*
X210819999Y-73659999D03*
X208279999Y-76199999D03*
X210819999Y-76199999D03*
X208279999Y-78739999D03*
X210819999Y-78739999D03*
X208279999Y-81279999D03*
X210819999Y-81279999D03*
X208279999Y-83819999D03*
X210819999Y-83819999D03*
X208279999Y-86359999D03*
X210819999Y-86359999D03*
X208279999Y-88899999D03*
X210819999Y-88899999D03*
X208279999Y-91439999D03*
X210819999Y-91439999D03*
X208279999Y-93979999D03*
X210819999Y-93979999D03*
X208279999Y-96519999D03*
X210819999Y-96519999D03*
X208279999Y-99059999D03*
X210819999Y-99059999D03*
X208279999Y-101599999D03*
X210819999Y-101599999D03*
X208279999Y-104139999D03*
X210819999Y-104139999D03*
X208279999Y-106679999D03*
X210819999Y-106679999D03*
X208279999Y-109219999D03*
X210819999Y-109219999D03*
X208279999Y-111759999D03*
X210819999Y-111759999D03*
X208279999Y-114299999D03*
X210819999Y-114299999D03*
%TD*%
D10*
%TO.C,PAD1-1*%
X139699999Y-113156999D03*
D11*
X139699999Y-110616999D03*
X139699999Y-108076999D03*
X139699999Y-105536999D03*
X139699999Y-102996999D03*
X139699999Y-100456999D03*
X139699999Y-97916999D03*
X139699999Y-95376999D03*
%TD*%
D10*
%TO.C,BO2*%
X132079999Y-78739999D03*
D11*
X134619999Y-78739999D03*
X137159999Y-78739999D03*
X139699999Y-78739999D03*
X142239999Y-78739999D03*
X144779999Y-78739999D03*
%TD*%
D10*
%TO.C,TR3*%
X177799999Y-99059999D03*
D11*
X177799999Y-96519999D03*
X177799999Y-93979999D03*
%TD*%
D10*
%TO.C,BO1*%
X109219999Y-76199999D03*
D11*
X111759999Y-76199999D03*
X114299999Y-76199999D03*
X116839999Y-76199999D03*
X119379999Y-76199999D03*
X121919999Y-76199999D03*
%TD*%
D10*
%TO.C,P5*%
X133095999Y-71119999D03*
D11*
X135635999Y-71119999D03*
X138175999Y-71119999D03*
X140715999Y-71119999D03*
X143255999Y-71119999D03*
X145795999Y-71119999D03*
X148335999Y-71119999D03*
X150875999Y-71119999D03*
X153415999Y-71119999D03*
X155955999Y-71119999D03*
%TD*%
D10*
%TO.C,TR7*%
X177799999Y-111759999D03*
D11*
X177799999Y-109219999D03*
X177799999Y-106679999D03*
%TD*%
D10*
%TO.C,P7*%
X182879999Y-71119999D03*
D11*
X185419999Y-71119999D03*
X187959999Y-71119999D03*
X190499999Y-71119999D03*
X193039999Y-71119999D03*
X195579999Y-71119999D03*
X198119999Y-71119999D03*
X200659999Y-71119999D03*
%TD*%
D10*
%TO.C,TR8*%
X187959999Y-111759999D03*
D11*
X187959999Y-109219999D03*
X187959999Y-106679999D03*
%TD*%
D10*
%TO.C,LED1*%
X200659999Y-114299999D03*
D11*
X200659999Y-111759999D03*
X200659999Y-109219999D03*
X200659999Y-106679999D03*
X200659999Y-104139999D03*
X200659999Y-101599999D03*
X200659999Y-99059999D03*
X200659999Y-96519999D03*
X200659999Y-93979999D03*
X200659999Y-91439999D03*
X200659999Y-88899999D03*
X200659999Y-86359999D03*
X200659999Y-83819999D03*
X200659999Y-81279999D03*
X200659999Y-78739999D03*
X200659999Y-76199999D03*
%TD*%
D10*
%TO.C,BO6*%
X132079999Y-86359999D03*
D11*
X134619999Y-86359999D03*
X137159999Y-86359999D03*
X139699999Y-86359999D03*
X142239999Y-86359999D03*
X144779999Y-86359999D03*
%TD*%
D12*
%TO.C,J1*%
X104680000Y-114300000D03*
D13*
X113679999Y-114299999D03*
D14*
X107679999Y-114299999D03*
D15*
X106679999Y-109799999D03*
X106679999Y-118799999D03*
%TD*%
D10*
%TO.C,P3*%
X187959999Y-119379999D03*
D11*
X190499999Y-119379999D03*
X193039999Y-119379999D03*
X195579999Y-119379999D03*
X198119999Y-119379999D03*
X200659999Y-119379999D03*
X203199999Y-119379999D03*
X205739999Y-119379999D03*
%TD*%
D10*
%TO.C,TR2*%
X167639999Y-99059999D03*
D11*
X167639999Y-96519999D03*
X167639999Y-93979999D03*
%TD*%
D10*
%TO.C,P6*%
X160019999Y-71119999D03*
D11*
X162559999Y-71119999D03*
X165099999Y-71119999D03*
X167639999Y-71119999D03*
X170179999Y-71119999D03*
X172719999Y-71119999D03*
X175259999Y-71119999D03*
X177799999Y-71119999D03*
%TD*%
D10*
%TO.C,P2*%
X165099999Y-119379999D03*
D11*
X167639999Y-119379999D03*
X170179999Y-119379999D03*
X172719999Y-119379999D03*
X175259999Y-119379999D03*
X177799999Y-119379999D03*
X180339999Y-119379999D03*
X182879999Y-119379999D03*
%TD*%
D10*
%TO.C,BO4*%
X172719999Y-78739999D03*
D11*
X175259999Y-78739999D03*
X177799999Y-78739999D03*
X180339999Y-78739999D03*
X182879999Y-78739999D03*
X185419999Y-78739999D03*
%TD*%
M02*
