%TF.GenerationSoftware,KiCad,Pcbnew,(7.0.0)*%
%TF.CreationDate,2023-03-06T13:52:23-05:00*%
%TF.ProjectId,warmingTray_v2,7761726d-696e-4675-9472-61795f76322e,rev?*%
%TF.SameCoordinates,Original*%
%TF.FileFunction,Soldermask,Top*%
%TF.FilePolarity,Negative*%
%FSLAX46Y46*%
G04 Gerber Fmt 4.6, Leading zero omitted, Abs format (unit mm)*
G04 Created by KiCad (PCBNEW (7.0.0)) date 2023-03-06 13:52:23*
%MOMM*%
%LPD*%
G01*
G04 APERTURE LIST*
G04 Aperture macros list*
%AMRoundRect*
0 Rectangle with rounded corners*
0 $1 Rounding radius*
0 $2 $3 $4 $5 $6 $7 $8 $9 X,Y pos of 4 corners*
0 Add a 4 corners polygon primitive as box body*
4,1,4,$2,$3,$4,$5,$6,$7,$8,$9,$2,$3,0*
0 Add four circle primitives for the rounded corners*
1,1,$1+$1,$2,$3*
1,1,$1+$1,$4,$5*
1,1,$1+$1,$6,$7*
1,1,$1+$1,$8,$9*
0 Add four rect primitives between the rounded corners*
20,1,$1+$1,$2,$3,$4,$5,0*
20,1,$1+$1,$4,$5,$6,$7,0*
20,1,$1+$1,$6,$7,$8,$9,0*
20,1,$1+$1,$8,$9,$2,$3,0*%
G04 Aperture macros list end*
%ADD10R,0.711200X1.346200*%
%ADD11R,1.700000X1.700000*%
%ADD12O,1.700000X1.700000*%
%ADD13RoundRect,0.250000X0.850000X0.350000X-0.850000X0.350000X-0.850000X-0.350000X0.850000X-0.350000X0*%
%ADD14RoundRect,0.249997X2.950003X2.650003X-2.950003X2.650003X-2.950003X-2.650003X2.950003X-2.650003X0*%
%ADD15R,1.346200X1.066800*%
%ADD16R,0.855600X1.250000*%
%ADD17C,1.600000*%
%ADD18R,2.000000X4.000000*%
%ADD19O,2.000000X3.300000*%
%ADD20O,3.500000X2.000000*%
G04 APERTURE END LIST*
D10*
%TO.C,R5*%
X152171399Y-111759999D03*
X150266399Y-111759999D03*
%TD*%
D11*
%TO.C,PAD5-1*%
X129539999Y-114299999D03*
D12*
X129539999Y-111759999D03*
X129539999Y-109219999D03*
X129539999Y-106679999D03*
X129539999Y-104139999D03*
X129539999Y-101599999D03*
X129539999Y-99059999D03*
X129539999Y-96519999D03*
%TD*%
D11*
%TO.C,P1*%
X142239999Y-119125999D03*
D12*
X144779999Y-119125999D03*
X147319999Y-119125999D03*
X149859999Y-119125999D03*
X152399999Y-119125999D03*
X154939999Y-119125999D03*
X157479999Y-119125999D03*
X160019999Y-119125999D03*
%TD*%
D11*
%TO.C,TR4*%
X187959999Y-99059999D03*
D12*
X187959999Y-96519999D03*
X187959999Y-93979999D03*
%TD*%
D11*
%TO.C,TR6*%
X167639999Y-111759999D03*
D12*
X167639999Y-109219999D03*
X167639999Y-106679999D03*
%TD*%
D13*
%TO.C,5VReg1*%
X122275000Y-99195000D03*
D14*
X115975000Y-96915000D03*
D13*
X122275000Y-94635000D03*
%TD*%
D11*
%TO.C,BO5*%
X109219999Y-83819999D03*
D12*
X111759999Y-83819999D03*
X114299999Y-83819999D03*
X116839999Y-83819999D03*
X119379999Y-83819999D03*
X121919999Y-83819999D03*
%TD*%
D11*
%TO.C,TR5*%
X154939999Y-111759999D03*
D12*
X154939999Y-109219999D03*
X154939999Y-106679999D03*
%TD*%
D11*
%TO.C,BO8*%
X172719999Y-86359999D03*
D12*
X175259999Y-86359999D03*
X177799999Y-86359999D03*
X180339999Y-86359999D03*
X182879999Y-86359999D03*
X185419999Y-86359999D03*
%TD*%
D11*
%TO.C,BO3*%
X152399999Y-78739999D03*
D12*
X154939999Y-78739999D03*
X157479999Y-78739999D03*
X160019999Y-78739999D03*
X162559999Y-78739999D03*
X165099999Y-78739999D03*
%TD*%
D11*
%TO.C,TR1*%
X154939999Y-99059999D03*
D12*
X154939999Y-96519999D03*
X154939999Y-93979999D03*
%TD*%
D11*
%TO.C,BO7*%
X152399999Y-86359999D03*
D12*
X154939999Y-86359999D03*
X157479999Y-86359999D03*
X160019999Y-86359999D03*
X162559999Y-86359999D03*
X165099999Y-86359999D03*
%TD*%
D11*
%TO.C,P4*%
X208279999Y-71119999D03*
D12*
X210819999Y-71119999D03*
X208279999Y-73659999D03*
X210819999Y-73659999D03*
X208279999Y-76199999D03*
X210819999Y-76199999D03*
X208279999Y-78739999D03*
X210819999Y-78739999D03*
X208279999Y-81279999D03*
X210819999Y-81279999D03*
X208279999Y-83819999D03*
X210819999Y-83819999D03*
X208279999Y-86359999D03*
X210819999Y-86359999D03*
X208279999Y-88899999D03*
X210819999Y-88899999D03*
X208279999Y-91439999D03*
X210819999Y-91439999D03*
X208279999Y-93979999D03*
X210819999Y-93979999D03*
X208279999Y-96519999D03*
X210819999Y-96519999D03*
X208279999Y-99059999D03*
X210819999Y-99059999D03*
X208279999Y-101599999D03*
X210819999Y-101599999D03*
X208279999Y-104139999D03*
X210819999Y-104139999D03*
X208279999Y-106679999D03*
X210819999Y-106679999D03*
X208279999Y-109219999D03*
X210819999Y-109219999D03*
X208279999Y-111759999D03*
X210819999Y-111759999D03*
X208279999Y-114299999D03*
X210819999Y-114299999D03*
%TD*%
D10*
%TO.C,R4*%
X185419999Y-99059999D03*
X183514999Y-99059999D03*
%TD*%
%TO.C,R1*%
X152399999Y-99059999D03*
X150494999Y-99059999D03*
%TD*%
D11*
%TO.C,PAD1-1*%
X139699999Y-114299999D03*
D12*
X139699999Y-111759999D03*
X139699999Y-109219999D03*
X139699999Y-106679999D03*
X139699999Y-104139999D03*
X139699999Y-101599999D03*
X139699999Y-99059999D03*
X139699999Y-96519999D03*
%TD*%
D15*
%TO.C,C2*%
X124106399Y-90339099D03*
X124106399Y-92142499D03*
%TD*%
D10*
%TO.C,R3*%
X175259999Y-99059999D03*
X173354999Y-99059999D03*
%TD*%
%TO.C,R2*%
X165099999Y-99059999D03*
X163194999Y-99059999D03*
%TD*%
%TO.C,R7*%
X175259999Y-111759999D03*
X173354999Y-111759999D03*
%TD*%
D11*
%TO.C,BO2*%
X132079999Y-78739999D03*
D12*
X134619999Y-78739999D03*
X137159999Y-78739999D03*
X139699999Y-78739999D03*
X142239999Y-78739999D03*
X144779999Y-78739999D03*
%TD*%
D11*
%TO.C,TR3*%
X177799999Y-99059999D03*
D12*
X177799999Y-96519999D03*
X177799999Y-93979999D03*
%TD*%
D11*
%TO.C,BO1*%
X109219999Y-76199999D03*
D12*
X111759999Y-76199999D03*
X114299999Y-76199999D03*
X116839999Y-76199999D03*
X119379999Y-76199999D03*
X121919999Y-76199999D03*
%TD*%
D10*
%TO.C,R8*%
X185597799Y-111759999D03*
X183692799Y-111759999D03*
%TD*%
D11*
%TO.C,P5*%
X133095999Y-71119999D03*
D12*
X135635999Y-71119999D03*
X138175999Y-71119999D03*
X140715999Y-71119999D03*
X143255999Y-71119999D03*
X145795999Y-71119999D03*
X148335999Y-71119999D03*
X150875999Y-71119999D03*
X153415999Y-71119999D03*
X155955999Y-71119999D03*
%TD*%
D11*
%TO.C,TR7*%
X177799999Y-111759999D03*
D12*
X177799999Y-109219999D03*
X177799999Y-106679999D03*
%TD*%
D11*
%TO.C,P7*%
X182879999Y-71119999D03*
D12*
X185419999Y-71119999D03*
X187959999Y-71119999D03*
X190499999Y-71119999D03*
X193039999Y-71119999D03*
X195579999Y-71119999D03*
X198119999Y-71119999D03*
X200659999Y-71119999D03*
%TD*%
D11*
%TO.C,TR8*%
X187959999Y-111759999D03*
D12*
X187959999Y-109219999D03*
X187959999Y-106679999D03*
%TD*%
D11*
%TO.C,LED1*%
X200659999Y-114299999D03*
D12*
X200659999Y-111759999D03*
X200659999Y-109219999D03*
X200659999Y-106679999D03*
X200659999Y-104139999D03*
X200659999Y-101599999D03*
X200659999Y-99059999D03*
X200659999Y-96519999D03*
X200659999Y-93979999D03*
X200659999Y-91439999D03*
X200659999Y-88899999D03*
X200659999Y-86359999D03*
X200659999Y-83819999D03*
X200659999Y-81279999D03*
X200659999Y-78739999D03*
X200659999Y-76199999D03*
%TD*%
D16*
%TO.C,C1*%
X115912199Y-104139999D03*
X117767799Y-104139999D03*
%TD*%
D11*
%TO.C,BO6*%
X132079999Y-86359999D03*
D12*
X134619999Y-86359999D03*
X137159999Y-86359999D03*
X139699999Y-86359999D03*
X142239999Y-86359999D03*
X144779999Y-86359999D03*
%TD*%
D17*
%TO.C,J1*%
X104680000Y-114300000D03*
D18*
X113679999Y-114299999D03*
D19*
X107679999Y-114299999D03*
D20*
X106679999Y-109799999D03*
X106679999Y-118799999D03*
%TD*%
D10*
%TO.C,R6*%
X165099999Y-111759999D03*
X163194999Y-111759999D03*
%TD*%
D11*
%TO.C,P3*%
X187959999Y-119379999D03*
D12*
X190499999Y-119379999D03*
X193039999Y-119379999D03*
X195579999Y-119379999D03*
X198119999Y-119379999D03*
X200659999Y-119379999D03*
X203199999Y-119379999D03*
X205739999Y-119379999D03*
%TD*%
D11*
%TO.C,TR2*%
X167639999Y-99059999D03*
D12*
X167639999Y-96519999D03*
X167639999Y-93979999D03*
%TD*%
D11*
%TO.C,P6*%
X160019999Y-71119999D03*
D12*
X162559999Y-71119999D03*
X165099999Y-71119999D03*
X167639999Y-71119999D03*
X170179999Y-71119999D03*
X172719999Y-71119999D03*
X175259999Y-71119999D03*
X177799999Y-71119999D03*
%TD*%
D11*
%TO.C,P2*%
X165099999Y-119379999D03*
D12*
X167639999Y-119379999D03*
X170179999Y-119379999D03*
X172719999Y-119379999D03*
X175259999Y-119379999D03*
X177799999Y-119379999D03*
X180339999Y-119379999D03*
X182879999Y-119379999D03*
%TD*%
D11*
%TO.C,BO4*%
X172719999Y-78739999D03*
D12*
X175259999Y-78739999D03*
X177799999Y-78739999D03*
X180339999Y-78739999D03*
X182879999Y-78739999D03*
X185419999Y-78739999D03*
%TD*%
M02*
