%TF.GenerationSoftware,KiCad,Pcbnew,(7.0.0)*%
%TF.CreationDate,2023-03-13T14:58:07-04:00*%
%TF.ProjectId,warmingTray_v2,7761726d-696e-4675-9472-61795f76322e,rev?*%
%TF.SameCoordinates,Original*%
%TF.FileFunction,Legend,Top*%
%TF.FilePolarity,Positive*%
%FSLAX46Y46*%
G04 Gerber Fmt 4.6, Leading zero omitted, Abs format (unit mm)*
G04 Created by KiCad (PCBNEW (7.0.0)) date 2023-03-13 14:58:07*
%MOMM*%
%LPD*%
G01*
G04 APERTURE LIST*
%ADD10C,0.150000*%
%ADD11C,0.120000*%
%ADD12C,0.152400*%
G04 APERTURE END LIST*
D10*
%TO.C,R5*%
X150709333Y-113777380D02*
X150376000Y-113301190D01*
X150137905Y-113777380D02*
X150137905Y-112777380D01*
X150137905Y-112777380D02*
X150518857Y-112777380D01*
X150518857Y-112777380D02*
X150614095Y-112825000D01*
X150614095Y-112825000D02*
X150661714Y-112872619D01*
X150661714Y-112872619D02*
X150709333Y-112967857D01*
X150709333Y-112967857D02*
X150709333Y-113110714D01*
X150709333Y-113110714D02*
X150661714Y-113205952D01*
X150661714Y-113205952D02*
X150614095Y-113253571D01*
X150614095Y-113253571D02*
X150518857Y-113301190D01*
X150518857Y-113301190D02*
X150137905Y-113301190D01*
X151614095Y-112777380D02*
X151137905Y-112777380D01*
X151137905Y-112777380D02*
X151090286Y-113253571D01*
X151090286Y-113253571D02*
X151137905Y-113205952D01*
X151137905Y-113205952D02*
X151233143Y-113158333D01*
X151233143Y-113158333D02*
X151471238Y-113158333D01*
X151471238Y-113158333D02*
X151566476Y-113205952D01*
X151566476Y-113205952D02*
X151614095Y-113253571D01*
X151614095Y-113253571D02*
X151661714Y-113348809D01*
X151661714Y-113348809D02*
X151661714Y-113586904D01*
X151661714Y-113586904D02*
X151614095Y-113682142D01*
X151614095Y-113682142D02*
X151566476Y-113729761D01*
X151566476Y-113729761D02*
X151471238Y-113777380D01*
X151471238Y-113777380D02*
X151233143Y-113777380D01*
X151233143Y-113777380D02*
X151137905Y-113729761D01*
X151137905Y-113729761D02*
X151090286Y-113682142D01*
%TO.C,PAD5-1*%
X121571095Y-113524380D02*
X121571095Y-112524380D01*
X121571095Y-112524380D02*
X121952047Y-112524380D01*
X121952047Y-112524380D02*
X122047285Y-112572000D01*
X122047285Y-112572000D02*
X122094904Y-112619619D01*
X122094904Y-112619619D02*
X122142523Y-112714857D01*
X122142523Y-112714857D02*
X122142523Y-112857714D01*
X122142523Y-112857714D02*
X122094904Y-112952952D01*
X122094904Y-112952952D02*
X122047285Y-113000571D01*
X122047285Y-113000571D02*
X121952047Y-113048190D01*
X121952047Y-113048190D02*
X121571095Y-113048190D01*
X122523476Y-113238666D02*
X122999666Y-113238666D01*
X122428238Y-113524380D02*
X122761571Y-112524380D01*
X122761571Y-112524380D02*
X123094904Y-113524380D01*
X123428238Y-113524380D02*
X123428238Y-112524380D01*
X123428238Y-112524380D02*
X123666333Y-112524380D01*
X123666333Y-112524380D02*
X123809190Y-112572000D01*
X123809190Y-112572000D02*
X123904428Y-112667238D01*
X123904428Y-112667238D02*
X123952047Y-112762476D01*
X123952047Y-112762476D02*
X123999666Y-112952952D01*
X123999666Y-112952952D02*
X123999666Y-113095809D01*
X123999666Y-113095809D02*
X123952047Y-113286285D01*
X123952047Y-113286285D02*
X123904428Y-113381523D01*
X123904428Y-113381523D02*
X123809190Y-113476761D01*
X123809190Y-113476761D02*
X123666333Y-113524380D01*
X123666333Y-113524380D02*
X123428238Y-113524380D01*
X124904428Y-112524380D02*
X124428238Y-112524380D01*
X124428238Y-112524380D02*
X124380619Y-113000571D01*
X124380619Y-113000571D02*
X124428238Y-112952952D01*
X124428238Y-112952952D02*
X124523476Y-112905333D01*
X124523476Y-112905333D02*
X124761571Y-112905333D01*
X124761571Y-112905333D02*
X124856809Y-112952952D01*
X124856809Y-112952952D02*
X124904428Y-113000571D01*
X124904428Y-113000571D02*
X124952047Y-113095809D01*
X124952047Y-113095809D02*
X124952047Y-113333904D01*
X124952047Y-113333904D02*
X124904428Y-113429142D01*
X124904428Y-113429142D02*
X124856809Y-113476761D01*
X124856809Y-113476761D02*
X124761571Y-113524380D01*
X124761571Y-113524380D02*
X124523476Y-113524380D01*
X124523476Y-113524380D02*
X124428238Y-113476761D01*
X124428238Y-113476761D02*
X124380619Y-113429142D01*
X125380619Y-113143428D02*
X126142524Y-113143428D01*
X127142523Y-113524380D02*
X126571095Y-113524380D01*
X126856809Y-113524380D02*
X126856809Y-112524380D01*
X126856809Y-112524380D02*
X126761571Y-112667238D01*
X126761571Y-112667238D02*
X126666333Y-112762476D01*
X126666333Y-112762476D02*
X126571095Y-112810095D01*
%TO.C,P1*%
X140277380Y-119864094D02*
X139277380Y-119864094D01*
X139277380Y-119864094D02*
X139277380Y-119483142D01*
X139277380Y-119483142D02*
X139325000Y-119387904D01*
X139325000Y-119387904D02*
X139372619Y-119340285D01*
X139372619Y-119340285D02*
X139467857Y-119292666D01*
X139467857Y-119292666D02*
X139610714Y-119292666D01*
X139610714Y-119292666D02*
X139705952Y-119340285D01*
X139705952Y-119340285D02*
X139753571Y-119387904D01*
X139753571Y-119387904D02*
X139801190Y-119483142D01*
X139801190Y-119483142D02*
X139801190Y-119864094D01*
X140277380Y-118340285D02*
X140277380Y-118911713D01*
X140277380Y-118625999D02*
X139277380Y-118625999D01*
X139277380Y-118625999D02*
X139420238Y-118721237D01*
X139420238Y-118721237D02*
X139515476Y-118816475D01*
X139515476Y-118816475D02*
X139563095Y-118911713D01*
%TO.C,TR4*%
X189867380Y-100321904D02*
X189867380Y-99750476D01*
X190867380Y-100036190D02*
X189867380Y-100036190D01*
X190867380Y-98845714D02*
X190391190Y-99179047D01*
X190867380Y-99417142D02*
X189867380Y-99417142D01*
X189867380Y-99417142D02*
X189867380Y-99036190D01*
X189867380Y-99036190D02*
X189915000Y-98940952D01*
X189915000Y-98940952D02*
X189962619Y-98893333D01*
X189962619Y-98893333D02*
X190057857Y-98845714D01*
X190057857Y-98845714D02*
X190200714Y-98845714D01*
X190200714Y-98845714D02*
X190295952Y-98893333D01*
X190295952Y-98893333D02*
X190343571Y-98940952D01*
X190343571Y-98940952D02*
X190391190Y-99036190D01*
X190391190Y-99036190D02*
X190391190Y-99417142D01*
X190200714Y-97988571D02*
X190867380Y-97988571D01*
X189819761Y-98226666D02*
X190534047Y-98464761D01*
X190534047Y-98464761D02*
X190534047Y-97845714D01*
%TO.C,TR6*%
X169547380Y-110481904D02*
X169547380Y-109910476D01*
X170547380Y-110196190D02*
X169547380Y-110196190D01*
X170547380Y-109005714D02*
X170071190Y-109339047D01*
X170547380Y-109577142D02*
X169547380Y-109577142D01*
X169547380Y-109577142D02*
X169547380Y-109196190D01*
X169547380Y-109196190D02*
X169595000Y-109100952D01*
X169595000Y-109100952D02*
X169642619Y-109053333D01*
X169642619Y-109053333D02*
X169737857Y-109005714D01*
X169737857Y-109005714D02*
X169880714Y-109005714D01*
X169880714Y-109005714D02*
X169975952Y-109053333D01*
X169975952Y-109053333D02*
X170023571Y-109100952D01*
X170023571Y-109100952D02*
X170071190Y-109196190D01*
X170071190Y-109196190D02*
X170071190Y-109577142D01*
X169547380Y-108148571D02*
X169547380Y-108339047D01*
X169547380Y-108339047D02*
X169595000Y-108434285D01*
X169595000Y-108434285D02*
X169642619Y-108481904D01*
X169642619Y-108481904D02*
X169785476Y-108577142D01*
X169785476Y-108577142D02*
X169975952Y-108624761D01*
X169975952Y-108624761D02*
X170356904Y-108624761D01*
X170356904Y-108624761D02*
X170452142Y-108577142D01*
X170452142Y-108577142D02*
X170499761Y-108529523D01*
X170499761Y-108529523D02*
X170547380Y-108434285D01*
X170547380Y-108434285D02*
X170547380Y-108243809D01*
X170547380Y-108243809D02*
X170499761Y-108148571D01*
X170499761Y-108148571D02*
X170452142Y-108100952D01*
X170452142Y-108100952D02*
X170356904Y-108053333D01*
X170356904Y-108053333D02*
X170118809Y-108053333D01*
X170118809Y-108053333D02*
X170023571Y-108100952D01*
X170023571Y-108100952D02*
X169975952Y-108148571D01*
X169975952Y-108148571D02*
X169928333Y-108243809D01*
X169928333Y-108243809D02*
X169928333Y-108434285D01*
X169928333Y-108434285D02*
X169975952Y-108529523D01*
X169975952Y-108529523D02*
X170023571Y-108577142D01*
X170023571Y-108577142D02*
X170118809Y-108624761D01*
%TO.C,5VReg1*%
X115187380Y-100782380D02*
X114711190Y-100782380D01*
X114711190Y-100782380D02*
X114663571Y-101258571D01*
X114663571Y-101258571D02*
X114711190Y-101210952D01*
X114711190Y-101210952D02*
X114806428Y-101163333D01*
X114806428Y-101163333D02*
X115044523Y-101163333D01*
X115044523Y-101163333D02*
X115139761Y-101210952D01*
X115139761Y-101210952D02*
X115187380Y-101258571D01*
X115187380Y-101258571D02*
X115234999Y-101353809D01*
X115234999Y-101353809D02*
X115234999Y-101591904D01*
X115234999Y-101591904D02*
X115187380Y-101687142D01*
X115187380Y-101687142D02*
X115139761Y-101734761D01*
X115139761Y-101734761D02*
X115044523Y-101782380D01*
X115044523Y-101782380D02*
X114806428Y-101782380D01*
X114806428Y-101782380D02*
X114711190Y-101734761D01*
X114711190Y-101734761D02*
X114663571Y-101687142D01*
X115520714Y-100782380D02*
X115854047Y-101782380D01*
X115854047Y-101782380D02*
X116187380Y-100782380D01*
X117092142Y-101782380D02*
X116758809Y-101306190D01*
X116520714Y-101782380D02*
X116520714Y-100782380D01*
X116520714Y-100782380D02*
X116901666Y-100782380D01*
X116901666Y-100782380D02*
X116996904Y-100830000D01*
X116996904Y-100830000D02*
X117044523Y-100877619D01*
X117044523Y-100877619D02*
X117092142Y-100972857D01*
X117092142Y-100972857D02*
X117092142Y-101115714D01*
X117092142Y-101115714D02*
X117044523Y-101210952D01*
X117044523Y-101210952D02*
X116996904Y-101258571D01*
X116996904Y-101258571D02*
X116901666Y-101306190D01*
X116901666Y-101306190D02*
X116520714Y-101306190D01*
X117901666Y-101734761D02*
X117806428Y-101782380D01*
X117806428Y-101782380D02*
X117615952Y-101782380D01*
X117615952Y-101782380D02*
X117520714Y-101734761D01*
X117520714Y-101734761D02*
X117473095Y-101639523D01*
X117473095Y-101639523D02*
X117473095Y-101258571D01*
X117473095Y-101258571D02*
X117520714Y-101163333D01*
X117520714Y-101163333D02*
X117615952Y-101115714D01*
X117615952Y-101115714D02*
X117806428Y-101115714D01*
X117806428Y-101115714D02*
X117901666Y-101163333D01*
X117901666Y-101163333D02*
X117949285Y-101258571D01*
X117949285Y-101258571D02*
X117949285Y-101353809D01*
X117949285Y-101353809D02*
X117473095Y-101449047D01*
X118806428Y-101115714D02*
X118806428Y-101925238D01*
X118806428Y-101925238D02*
X118758809Y-102020476D01*
X118758809Y-102020476D02*
X118711190Y-102068095D01*
X118711190Y-102068095D02*
X118615952Y-102115714D01*
X118615952Y-102115714D02*
X118473095Y-102115714D01*
X118473095Y-102115714D02*
X118377857Y-102068095D01*
X118806428Y-101734761D02*
X118711190Y-101782380D01*
X118711190Y-101782380D02*
X118520714Y-101782380D01*
X118520714Y-101782380D02*
X118425476Y-101734761D01*
X118425476Y-101734761D02*
X118377857Y-101687142D01*
X118377857Y-101687142D02*
X118330238Y-101591904D01*
X118330238Y-101591904D02*
X118330238Y-101306190D01*
X118330238Y-101306190D02*
X118377857Y-101210952D01*
X118377857Y-101210952D02*
X118425476Y-101163333D01*
X118425476Y-101163333D02*
X118520714Y-101115714D01*
X118520714Y-101115714D02*
X118711190Y-101115714D01*
X118711190Y-101115714D02*
X118806428Y-101163333D01*
X119806428Y-101782380D02*
X119235000Y-101782380D01*
X119520714Y-101782380D02*
X119520714Y-100782380D01*
X119520714Y-100782380D02*
X119425476Y-100925238D01*
X119425476Y-100925238D02*
X119330238Y-101020476D01*
X119330238Y-101020476D02*
X119235000Y-101068095D01*
%TO.C,BO5*%
X106733571Y-84748571D02*
X106781190Y-84605714D01*
X106781190Y-84605714D02*
X106828809Y-84558095D01*
X106828809Y-84558095D02*
X106924047Y-84510476D01*
X106924047Y-84510476D02*
X107066904Y-84510476D01*
X107066904Y-84510476D02*
X107162142Y-84558095D01*
X107162142Y-84558095D02*
X107209761Y-84605714D01*
X107209761Y-84605714D02*
X107257380Y-84700952D01*
X107257380Y-84700952D02*
X107257380Y-85081904D01*
X107257380Y-85081904D02*
X106257380Y-85081904D01*
X106257380Y-85081904D02*
X106257380Y-84748571D01*
X106257380Y-84748571D02*
X106305000Y-84653333D01*
X106305000Y-84653333D02*
X106352619Y-84605714D01*
X106352619Y-84605714D02*
X106447857Y-84558095D01*
X106447857Y-84558095D02*
X106543095Y-84558095D01*
X106543095Y-84558095D02*
X106638333Y-84605714D01*
X106638333Y-84605714D02*
X106685952Y-84653333D01*
X106685952Y-84653333D02*
X106733571Y-84748571D01*
X106733571Y-84748571D02*
X106733571Y-85081904D01*
X106257380Y-83891428D02*
X106257380Y-83700952D01*
X106257380Y-83700952D02*
X106305000Y-83605714D01*
X106305000Y-83605714D02*
X106400238Y-83510476D01*
X106400238Y-83510476D02*
X106590714Y-83462857D01*
X106590714Y-83462857D02*
X106924047Y-83462857D01*
X106924047Y-83462857D02*
X107114523Y-83510476D01*
X107114523Y-83510476D02*
X107209761Y-83605714D01*
X107209761Y-83605714D02*
X107257380Y-83700952D01*
X107257380Y-83700952D02*
X107257380Y-83891428D01*
X107257380Y-83891428D02*
X107209761Y-83986666D01*
X107209761Y-83986666D02*
X107114523Y-84081904D01*
X107114523Y-84081904D02*
X106924047Y-84129523D01*
X106924047Y-84129523D02*
X106590714Y-84129523D01*
X106590714Y-84129523D02*
X106400238Y-84081904D01*
X106400238Y-84081904D02*
X106305000Y-83986666D01*
X106305000Y-83986666D02*
X106257380Y-83891428D01*
X106257380Y-82558095D02*
X106257380Y-83034285D01*
X106257380Y-83034285D02*
X106733571Y-83081904D01*
X106733571Y-83081904D02*
X106685952Y-83034285D01*
X106685952Y-83034285D02*
X106638333Y-82939047D01*
X106638333Y-82939047D02*
X106638333Y-82700952D01*
X106638333Y-82700952D02*
X106685952Y-82605714D01*
X106685952Y-82605714D02*
X106733571Y-82558095D01*
X106733571Y-82558095D02*
X106828809Y-82510476D01*
X106828809Y-82510476D02*
X107066904Y-82510476D01*
X107066904Y-82510476D02*
X107162142Y-82558095D01*
X107162142Y-82558095D02*
X107209761Y-82605714D01*
X107209761Y-82605714D02*
X107257380Y-82700952D01*
X107257380Y-82700952D02*
X107257380Y-82939047D01*
X107257380Y-82939047D02*
X107209761Y-83034285D01*
X107209761Y-83034285D02*
X107162142Y-83081904D01*
%TO.C,TR5*%
X156847380Y-110481904D02*
X156847380Y-109910476D01*
X157847380Y-110196190D02*
X156847380Y-110196190D01*
X157847380Y-109005714D02*
X157371190Y-109339047D01*
X157847380Y-109577142D02*
X156847380Y-109577142D01*
X156847380Y-109577142D02*
X156847380Y-109196190D01*
X156847380Y-109196190D02*
X156895000Y-109100952D01*
X156895000Y-109100952D02*
X156942619Y-109053333D01*
X156942619Y-109053333D02*
X157037857Y-109005714D01*
X157037857Y-109005714D02*
X157180714Y-109005714D01*
X157180714Y-109005714D02*
X157275952Y-109053333D01*
X157275952Y-109053333D02*
X157323571Y-109100952D01*
X157323571Y-109100952D02*
X157371190Y-109196190D01*
X157371190Y-109196190D02*
X157371190Y-109577142D01*
X156847380Y-108100952D02*
X156847380Y-108577142D01*
X156847380Y-108577142D02*
X157323571Y-108624761D01*
X157323571Y-108624761D02*
X157275952Y-108577142D01*
X157275952Y-108577142D02*
X157228333Y-108481904D01*
X157228333Y-108481904D02*
X157228333Y-108243809D01*
X157228333Y-108243809D02*
X157275952Y-108148571D01*
X157275952Y-108148571D02*
X157323571Y-108100952D01*
X157323571Y-108100952D02*
X157418809Y-108053333D01*
X157418809Y-108053333D02*
X157656904Y-108053333D01*
X157656904Y-108053333D02*
X157752142Y-108100952D01*
X157752142Y-108100952D02*
X157799761Y-108148571D01*
X157799761Y-108148571D02*
X157847380Y-108243809D01*
X157847380Y-108243809D02*
X157847380Y-108481904D01*
X157847380Y-108481904D02*
X157799761Y-108577142D01*
X157799761Y-108577142D02*
X157752142Y-108624761D01*
%TO.C,BO8*%
X170233571Y-87288571D02*
X170281190Y-87145714D01*
X170281190Y-87145714D02*
X170328809Y-87098095D01*
X170328809Y-87098095D02*
X170424047Y-87050476D01*
X170424047Y-87050476D02*
X170566904Y-87050476D01*
X170566904Y-87050476D02*
X170662142Y-87098095D01*
X170662142Y-87098095D02*
X170709761Y-87145714D01*
X170709761Y-87145714D02*
X170757380Y-87240952D01*
X170757380Y-87240952D02*
X170757380Y-87621904D01*
X170757380Y-87621904D02*
X169757380Y-87621904D01*
X169757380Y-87621904D02*
X169757380Y-87288571D01*
X169757380Y-87288571D02*
X169805000Y-87193333D01*
X169805000Y-87193333D02*
X169852619Y-87145714D01*
X169852619Y-87145714D02*
X169947857Y-87098095D01*
X169947857Y-87098095D02*
X170043095Y-87098095D01*
X170043095Y-87098095D02*
X170138333Y-87145714D01*
X170138333Y-87145714D02*
X170185952Y-87193333D01*
X170185952Y-87193333D02*
X170233571Y-87288571D01*
X170233571Y-87288571D02*
X170233571Y-87621904D01*
X169757380Y-86431428D02*
X169757380Y-86240952D01*
X169757380Y-86240952D02*
X169805000Y-86145714D01*
X169805000Y-86145714D02*
X169900238Y-86050476D01*
X169900238Y-86050476D02*
X170090714Y-86002857D01*
X170090714Y-86002857D02*
X170424047Y-86002857D01*
X170424047Y-86002857D02*
X170614523Y-86050476D01*
X170614523Y-86050476D02*
X170709761Y-86145714D01*
X170709761Y-86145714D02*
X170757380Y-86240952D01*
X170757380Y-86240952D02*
X170757380Y-86431428D01*
X170757380Y-86431428D02*
X170709761Y-86526666D01*
X170709761Y-86526666D02*
X170614523Y-86621904D01*
X170614523Y-86621904D02*
X170424047Y-86669523D01*
X170424047Y-86669523D02*
X170090714Y-86669523D01*
X170090714Y-86669523D02*
X169900238Y-86621904D01*
X169900238Y-86621904D02*
X169805000Y-86526666D01*
X169805000Y-86526666D02*
X169757380Y-86431428D01*
X170185952Y-85431428D02*
X170138333Y-85526666D01*
X170138333Y-85526666D02*
X170090714Y-85574285D01*
X170090714Y-85574285D02*
X169995476Y-85621904D01*
X169995476Y-85621904D02*
X169947857Y-85621904D01*
X169947857Y-85621904D02*
X169852619Y-85574285D01*
X169852619Y-85574285D02*
X169805000Y-85526666D01*
X169805000Y-85526666D02*
X169757380Y-85431428D01*
X169757380Y-85431428D02*
X169757380Y-85240952D01*
X169757380Y-85240952D02*
X169805000Y-85145714D01*
X169805000Y-85145714D02*
X169852619Y-85098095D01*
X169852619Y-85098095D02*
X169947857Y-85050476D01*
X169947857Y-85050476D02*
X169995476Y-85050476D01*
X169995476Y-85050476D02*
X170090714Y-85098095D01*
X170090714Y-85098095D02*
X170138333Y-85145714D01*
X170138333Y-85145714D02*
X170185952Y-85240952D01*
X170185952Y-85240952D02*
X170185952Y-85431428D01*
X170185952Y-85431428D02*
X170233571Y-85526666D01*
X170233571Y-85526666D02*
X170281190Y-85574285D01*
X170281190Y-85574285D02*
X170376428Y-85621904D01*
X170376428Y-85621904D02*
X170566904Y-85621904D01*
X170566904Y-85621904D02*
X170662142Y-85574285D01*
X170662142Y-85574285D02*
X170709761Y-85526666D01*
X170709761Y-85526666D02*
X170757380Y-85431428D01*
X170757380Y-85431428D02*
X170757380Y-85240952D01*
X170757380Y-85240952D02*
X170709761Y-85145714D01*
X170709761Y-85145714D02*
X170662142Y-85098095D01*
X170662142Y-85098095D02*
X170566904Y-85050476D01*
X170566904Y-85050476D02*
X170376428Y-85050476D01*
X170376428Y-85050476D02*
X170281190Y-85098095D01*
X170281190Y-85098095D02*
X170233571Y-85145714D01*
X170233571Y-85145714D02*
X170185952Y-85240952D01*
%TO.C,BO3*%
X149913571Y-79668571D02*
X149961190Y-79525714D01*
X149961190Y-79525714D02*
X150008809Y-79478095D01*
X150008809Y-79478095D02*
X150104047Y-79430476D01*
X150104047Y-79430476D02*
X150246904Y-79430476D01*
X150246904Y-79430476D02*
X150342142Y-79478095D01*
X150342142Y-79478095D02*
X150389761Y-79525714D01*
X150389761Y-79525714D02*
X150437380Y-79620952D01*
X150437380Y-79620952D02*
X150437380Y-80001904D01*
X150437380Y-80001904D02*
X149437380Y-80001904D01*
X149437380Y-80001904D02*
X149437380Y-79668571D01*
X149437380Y-79668571D02*
X149485000Y-79573333D01*
X149485000Y-79573333D02*
X149532619Y-79525714D01*
X149532619Y-79525714D02*
X149627857Y-79478095D01*
X149627857Y-79478095D02*
X149723095Y-79478095D01*
X149723095Y-79478095D02*
X149818333Y-79525714D01*
X149818333Y-79525714D02*
X149865952Y-79573333D01*
X149865952Y-79573333D02*
X149913571Y-79668571D01*
X149913571Y-79668571D02*
X149913571Y-80001904D01*
X149437380Y-78811428D02*
X149437380Y-78620952D01*
X149437380Y-78620952D02*
X149485000Y-78525714D01*
X149485000Y-78525714D02*
X149580238Y-78430476D01*
X149580238Y-78430476D02*
X149770714Y-78382857D01*
X149770714Y-78382857D02*
X150104047Y-78382857D01*
X150104047Y-78382857D02*
X150294523Y-78430476D01*
X150294523Y-78430476D02*
X150389761Y-78525714D01*
X150389761Y-78525714D02*
X150437380Y-78620952D01*
X150437380Y-78620952D02*
X150437380Y-78811428D01*
X150437380Y-78811428D02*
X150389761Y-78906666D01*
X150389761Y-78906666D02*
X150294523Y-79001904D01*
X150294523Y-79001904D02*
X150104047Y-79049523D01*
X150104047Y-79049523D02*
X149770714Y-79049523D01*
X149770714Y-79049523D02*
X149580238Y-79001904D01*
X149580238Y-79001904D02*
X149485000Y-78906666D01*
X149485000Y-78906666D02*
X149437380Y-78811428D01*
X149437380Y-78049523D02*
X149437380Y-77430476D01*
X149437380Y-77430476D02*
X149818333Y-77763809D01*
X149818333Y-77763809D02*
X149818333Y-77620952D01*
X149818333Y-77620952D02*
X149865952Y-77525714D01*
X149865952Y-77525714D02*
X149913571Y-77478095D01*
X149913571Y-77478095D02*
X150008809Y-77430476D01*
X150008809Y-77430476D02*
X150246904Y-77430476D01*
X150246904Y-77430476D02*
X150342142Y-77478095D01*
X150342142Y-77478095D02*
X150389761Y-77525714D01*
X150389761Y-77525714D02*
X150437380Y-77620952D01*
X150437380Y-77620952D02*
X150437380Y-77906666D01*
X150437380Y-77906666D02*
X150389761Y-78001904D01*
X150389761Y-78001904D02*
X150342142Y-78049523D01*
%TO.C,TR1*%
X156847380Y-100321904D02*
X156847380Y-99750476D01*
X157847380Y-100036190D02*
X156847380Y-100036190D01*
X157847380Y-98845714D02*
X157371190Y-99179047D01*
X157847380Y-99417142D02*
X156847380Y-99417142D01*
X156847380Y-99417142D02*
X156847380Y-99036190D01*
X156847380Y-99036190D02*
X156895000Y-98940952D01*
X156895000Y-98940952D02*
X156942619Y-98893333D01*
X156942619Y-98893333D02*
X157037857Y-98845714D01*
X157037857Y-98845714D02*
X157180714Y-98845714D01*
X157180714Y-98845714D02*
X157275952Y-98893333D01*
X157275952Y-98893333D02*
X157323571Y-98940952D01*
X157323571Y-98940952D02*
X157371190Y-99036190D01*
X157371190Y-99036190D02*
X157371190Y-99417142D01*
X157847380Y-97893333D02*
X157847380Y-98464761D01*
X157847380Y-98179047D02*
X156847380Y-98179047D01*
X156847380Y-98179047D02*
X156990238Y-98274285D01*
X156990238Y-98274285D02*
X157085476Y-98369523D01*
X157085476Y-98369523D02*
X157133095Y-98464761D01*
%TO.C,BO7*%
X149913571Y-87288571D02*
X149961190Y-87145714D01*
X149961190Y-87145714D02*
X150008809Y-87098095D01*
X150008809Y-87098095D02*
X150104047Y-87050476D01*
X150104047Y-87050476D02*
X150246904Y-87050476D01*
X150246904Y-87050476D02*
X150342142Y-87098095D01*
X150342142Y-87098095D02*
X150389761Y-87145714D01*
X150389761Y-87145714D02*
X150437380Y-87240952D01*
X150437380Y-87240952D02*
X150437380Y-87621904D01*
X150437380Y-87621904D02*
X149437380Y-87621904D01*
X149437380Y-87621904D02*
X149437380Y-87288571D01*
X149437380Y-87288571D02*
X149485000Y-87193333D01*
X149485000Y-87193333D02*
X149532619Y-87145714D01*
X149532619Y-87145714D02*
X149627857Y-87098095D01*
X149627857Y-87098095D02*
X149723095Y-87098095D01*
X149723095Y-87098095D02*
X149818333Y-87145714D01*
X149818333Y-87145714D02*
X149865952Y-87193333D01*
X149865952Y-87193333D02*
X149913571Y-87288571D01*
X149913571Y-87288571D02*
X149913571Y-87621904D01*
X149437380Y-86431428D02*
X149437380Y-86240952D01*
X149437380Y-86240952D02*
X149485000Y-86145714D01*
X149485000Y-86145714D02*
X149580238Y-86050476D01*
X149580238Y-86050476D02*
X149770714Y-86002857D01*
X149770714Y-86002857D02*
X150104047Y-86002857D01*
X150104047Y-86002857D02*
X150294523Y-86050476D01*
X150294523Y-86050476D02*
X150389761Y-86145714D01*
X150389761Y-86145714D02*
X150437380Y-86240952D01*
X150437380Y-86240952D02*
X150437380Y-86431428D01*
X150437380Y-86431428D02*
X150389761Y-86526666D01*
X150389761Y-86526666D02*
X150294523Y-86621904D01*
X150294523Y-86621904D02*
X150104047Y-86669523D01*
X150104047Y-86669523D02*
X149770714Y-86669523D01*
X149770714Y-86669523D02*
X149580238Y-86621904D01*
X149580238Y-86621904D02*
X149485000Y-86526666D01*
X149485000Y-86526666D02*
X149437380Y-86431428D01*
X149437380Y-85669523D02*
X149437380Y-85002857D01*
X149437380Y-85002857D02*
X150437380Y-85431428D01*
%TO.C,P4*%
X202461905Y-71487380D02*
X202461905Y-70487380D01*
X202461905Y-70487380D02*
X202842857Y-70487380D01*
X202842857Y-70487380D02*
X202938095Y-70535000D01*
X202938095Y-70535000D02*
X202985714Y-70582619D01*
X202985714Y-70582619D02*
X203033333Y-70677857D01*
X203033333Y-70677857D02*
X203033333Y-70820714D01*
X203033333Y-70820714D02*
X202985714Y-70915952D01*
X202985714Y-70915952D02*
X202938095Y-70963571D01*
X202938095Y-70963571D02*
X202842857Y-71011190D01*
X202842857Y-71011190D02*
X202461905Y-71011190D01*
X203890476Y-70820714D02*
X203890476Y-71487380D01*
X203652381Y-70439761D02*
X203414286Y-71154047D01*
X203414286Y-71154047D02*
X204033333Y-71154047D01*
%TO.C,R4*%
X183713333Y-101077380D02*
X183380000Y-100601190D01*
X183141905Y-101077380D02*
X183141905Y-100077380D01*
X183141905Y-100077380D02*
X183522857Y-100077380D01*
X183522857Y-100077380D02*
X183618095Y-100125000D01*
X183618095Y-100125000D02*
X183665714Y-100172619D01*
X183665714Y-100172619D02*
X183713333Y-100267857D01*
X183713333Y-100267857D02*
X183713333Y-100410714D01*
X183713333Y-100410714D02*
X183665714Y-100505952D01*
X183665714Y-100505952D02*
X183618095Y-100553571D01*
X183618095Y-100553571D02*
X183522857Y-100601190D01*
X183522857Y-100601190D02*
X183141905Y-100601190D01*
X184570476Y-100410714D02*
X184570476Y-101077380D01*
X184332381Y-100029761D02*
X184094286Y-100744047D01*
X184094286Y-100744047D02*
X184713333Y-100744047D01*
%TO.C,R1*%
X150963333Y-101077380D02*
X150630000Y-100601190D01*
X150391905Y-101077380D02*
X150391905Y-100077380D01*
X150391905Y-100077380D02*
X150772857Y-100077380D01*
X150772857Y-100077380D02*
X150868095Y-100125000D01*
X150868095Y-100125000D02*
X150915714Y-100172619D01*
X150915714Y-100172619D02*
X150963333Y-100267857D01*
X150963333Y-100267857D02*
X150963333Y-100410714D01*
X150963333Y-100410714D02*
X150915714Y-100505952D01*
X150915714Y-100505952D02*
X150868095Y-100553571D01*
X150868095Y-100553571D02*
X150772857Y-100601190D01*
X150772857Y-100601190D02*
X150391905Y-100601190D01*
X151915714Y-101077380D02*
X151344286Y-101077380D01*
X151630000Y-101077380D02*
X151630000Y-100077380D01*
X151630000Y-100077380D02*
X151534762Y-100220238D01*
X151534762Y-100220238D02*
X151439524Y-100315476D01*
X151439524Y-100315476D02*
X151344286Y-100363095D01*
%TO.C,PAD1-1*%
X131858095Y-118604380D02*
X131858095Y-117604380D01*
X131858095Y-117604380D02*
X132239047Y-117604380D01*
X132239047Y-117604380D02*
X132334285Y-117652000D01*
X132334285Y-117652000D02*
X132381904Y-117699619D01*
X132381904Y-117699619D02*
X132429523Y-117794857D01*
X132429523Y-117794857D02*
X132429523Y-117937714D01*
X132429523Y-117937714D02*
X132381904Y-118032952D01*
X132381904Y-118032952D02*
X132334285Y-118080571D01*
X132334285Y-118080571D02*
X132239047Y-118128190D01*
X132239047Y-118128190D02*
X131858095Y-118128190D01*
X132810476Y-118318666D02*
X133286666Y-118318666D01*
X132715238Y-118604380D02*
X133048571Y-117604380D01*
X133048571Y-117604380D02*
X133381904Y-118604380D01*
X133715238Y-118604380D02*
X133715238Y-117604380D01*
X133715238Y-117604380D02*
X133953333Y-117604380D01*
X133953333Y-117604380D02*
X134096190Y-117652000D01*
X134096190Y-117652000D02*
X134191428Y-117747238D01*
X134191428Y-117747238D02*
X134239047Y-117842476D01*
X134239047Y-117842476D02*
X134286666Y-118032952D01*
X134286666Y-118032952D02*
X134286666Y-118175809D01*
X134286666Y-118175809D02*
X134239047Y-118366285D01*
X134239047Y-118366285D02*
X134191428Y-118461523D01*
X134191428Y-118461523D02*
X134096190Y-118556761D01*
X134096190Y-118556761D02*
X133953333Y-118604380D01*
X133953333Y-118604380D02*
X133715238Y-118604380D01*
X135239047Y-118604380D02*
X134667619Y-118604380D01*
X134953333Y-118604380D02*
X134953333Y-117604380D01*
X134953333Y-117604380D02*
X134858095Y-117747238D01*
X134858095Y-117747238D02*
X134762857Y-117842476D01*
X134762857Y-117842476D02*
X134667619Y-117890095D01*
X135667619Y-118223428D02*
X136429524Y-118223428D01*
X137429523Y-118604380D02*
X136858095Y-118604380D01*
X137143809Y-118604380D02*
X137143809Y-117604380D01*
X137143809Y-117604380D02*
X137048571Y-117747238D01*
X137048571Y-117747238D02*
X136953333Y-117842476D01*
X136953333Y-117842476D02*
X136858095Y-117890095D01*
%TO.C,C2*%
X121499333Y-91077142D02*
X121451714Y-91124761D01*
X121451714Y-91124761D02*
X121308857Y-91172380D01*
X121308857Y-91172380D02*
X121213619Y-91172380D01*
X121213619Y-91172380D02*
X121070762Y-91124761D01*
X121070762Y-91124761D02*
X120975524Y-91029523D01*
X120975524Y-91029523D02*
X120927905Y-90934285D01*
X120927905Y-90934285D02*
X120880286Y-90743809D01*
X120880286Y-90743809D02*
X120880286Y-90600952D01*
X120880286Y-90600952D02*
X120927905Y-90410476D01*
X120927905Y-90410476D02*
X120975524Y-90315238D01*
X120975524Y-90315238D02*
X121070762Y-90220000D01*
X121070762Y-90220000D02*
X121213619Y-90172380D01*
X121213619Y-90172380D02*
X121308857Y-90172380D01*
X121308857Y-90172380D02*
X121451714Y-90220000D01*
X121451714Y-90220000D02*
X121499333Y-90267619D01*
X121880286Y-90267619D02*
X121927905Y-90220000D01*
X121927905Y-90220000D02*
X122023143Y-90172380D01*
X122023143Y-90172380D02*
X122261238Y-90172380D01*
X122261238Y-90172380D02*
X122356476Y-90220000D01*
X122356476Y-90220000D02*
X122404095Y-90267619D01*
X122404095Y-90267619D02*
X122451714Y-90362857D01*
X122451714Y-90362857D02*
X122451714Y-90458095D01*
X122451714Y-90458095D02*
X122404095Y-90600952D01*
X122404095Y-90600952D02*
X121832667Y-91172380D01*
X121832667Y-91172380D02*
X122451714Y-91172380D01*
%TO.C,R3*%
X173553333Y-101077380D02*
X173220000Y-100601190D01*
X172981905Y-101077380D02*
X172981905Y-100077380D01*
X172981905Y-100077380D02*
X173362857Y-100077380D01*
X173362857Y-100077380D02*
X173458095Y-100125000D01*
X173458095Y-100125000D02*
X173505714Y-100172619D01*
X173505714Y-100172619D02*
X173553333Y-100267857D01*
X173553333Y-100267857D02*
X173553333Y-100410714D01*
X173553333Y-100410714D02*
X173505714Y-100505952D01*
X173505714Y-100505952D02*
X173458095Y-100553571D01*
X173458095Y-100553571D02*
X173362857Y-100601190D01*
X173362857Y-100601190D02*
X172981905Y-100601190D01*
X173886667Y-100077380D02*
X174505714Y-100077380D01*
X174505714Y-100077380D02*
X174172381Y-100458333D01*
X174172381Y-100458333D02*
X174315238Y-100458333D01*
X174315238Y-100458333D02*
X174410476Y-100505952D01*
X174410476Y-100505952D02*
X174458095Y-100553571D01*
X174458095Y-100553571D02*
X174505714Y-100648809D01*
X174505714Y-100648809D02*
X174505714Y-100886904D01*
X174505714Y-100886904D02*
X174458095Y-100982142D01*
X174458095Y-100982142D02*
X174410476Y-101029761D01*
X174410476Y-101029761D02*
X174315238Y-101077380D01*
X174315238Y-101077380D02*
X174029524Y-101077380D01*
X174029524Y-101077380D02*
X173934286Y-101029761D01*
X173934286Y-101029761D02*
X173886667Y-100982142D01*
%TO.C,R2*%
X163393333Y-101077380D02*
X163060000Y-100601190D01*
X162821905Y-101077380D02*
X162821905Y-100077380D01*
X162821905Y-100077380D02*
X163202857Y-100077380D01*
X163202857Y-100077380D02*
X163298095Y-100125000D01*
X163298095Y-100125000D02*
X163345714Y-100172619D01*
X163345714Y-100172619D02*
X163393333Y-100267857D01*
X163393333Y-100267857D02*
X163393333Y-100410714D01*
X163393333Y-100410714D02*
X163345714Y-100505952D01*
X163345714Y-100505952D02*
X163298095Y-100553571D01*
X163298095Y-100553571D02*
X163202857Y-100601190D01*
X163202857Y-100601190D02*
X162821905Y-100601190D01*
X163774286Y-100172619D02*
X163821905Y-100125000D01*
X163821905Y-100125000D02*
X163917143Y-100077380D01*
X163917143Y-100077380D02*
X164155238Y-100077380D01*
X164155238Y-100077380D02*
X164250476Y-100125000D01*
X164250476Y-100125000D02*
X164298095Y-100172619D01*
X164298095Y-100172619D02*
X164345714Y-100267857D01*
X164345714Y-100267857D02*
X164345714Y-100363095D01*
X164345714Y-100363095D02*
X164298095Y-100505952D01*
X164298095Y-100505952D02*
X163726667Y-101077380D01*
X163726667Y-101077380D02*
X164345714Y-101077380D01*
%TO.C,R7*%
X171457833Y-110603380D02*
X171124500Y-110127190D01*
X170886405Y-110603380D02*
X170886405Y-109603380D01*
X170886405Y-109603380D02*
X171267357Y-109603380D01*
X171267357Y-109603380D02*
X171362595Y-109651000D01*
X171362595Y-109651000D02*
X171410214Y-109698619D01*
X171410214Y-109698619D02*
X171457833Y-109793857D01*
X171457833Y-109793857D02*
X171457833Y-109936714D01*
X171457833Y-109936714D02*
X171410214Y-110031952D01*
X171410214Y-110031952D02*
X171362595Y-110079571D01*
X171362595Y-110079571D02*
X171267357Y-110127190D01*
X171267357Y-110127190D02*
X170886405Y-110127190D01*
X171791167Y-109603380D02*
X172457833Y-109603380D01*
X172457833Y-109603380D02*
X172029262Y-110603380D01*
%TO.C,BO2*%
X129593571Y-79668571D02*
X129641190Y-79525714D01*
X129641190Y-79525714D02*
X129688809Y-79478095D01*
X129688809Y-79478095D02*
X129784047Y-79430476D01*
X129784047Y-79430476D02*
X129926904Y-79430476D01*
X129926904Y-79430476D02*
X130022142Y-79478095D01*
X130022142Y-79478095D02*
X130069761Y-79525714D01*
X130069761Y-79525714D02*
X130117380Y-79620952D01*
X130117380Y-79620952D02*
X130117380Y-80001904D01*
X130117380Y-80001904D02*
X129117380Y-80001904D01*
X129117380Y-80001904D02*
X129117380Y-79668571D01*
X129117380Y-79668571D02*
X129165000Y-79573333D01*
X129165000Y-79573333D02*
X129212619Y-79525714D01*
X129212619Y-79525714D02*
X129307857Y-79478095D01*
X129307857Y-79478095D02*
X129403095Y-79478095D01*
X129403095Y-79478095D02*
X129498333Y-79525714D01*
X129498333Y-79525714D02*
X129545952Y-79573333D01*
X129545952Y-79573333D02*
X129593571Y-79668571D01*
X129593571Y-79668571D02*
X129593571Y-80001904D01*
X129117380Y-78811428D02*
X129117380Y-78620952D01*
X129117380Y-78620952D02*
X129165000Y-78525714D01*
X129165000Y-78525714D02*
X129260238Y-78430476D01*
X129260238Y-78430476D02*
X129450714Y-78382857D01*
X129450714Y-78382857D02*
X129784047Y-78382857D01*
X129784047Y-78382857D02*
X129974523Y-78430476D01*
X129974523Y-78430476D02*
X130069761Y-78525714D01*
X130069761Y-78525714D02*
X130117380Y-78620952D01*
X130117380Y-78620952D02*
X130117380Y-78811428D01*
X130117380Y-78811428D02*
X130069761Y-78906666D01*
X130069761Y-78906666D02*
X129974523Y-79001904D01*
X129974523Y-79001904D02*
X129784047Y-79049523D01*
X129784047Y-79049523D02*
X129450714Y-79049523D01*
X129450714Y-79049523D02*
X129260238Y-79001904D01*
X129260238Y-79001904D02*
X129165000Y-78906666D01*
X129165000Y-78906666D02*
X129117380Y-78811428D01*
X129212619Y-78001904D02*
X129165000Y-77954285D01*
X129165000Y-77954285D02*
X129117380Y-77859047D01*
X129117380Y-77859047D02*
X129117380Y-77620952D01*
X129117380Y-77620952D02*
X129165000Y-77525714D01*
X129165000Y-77525714D02*
X129212619Y-77478095D01*
X129212619Y-77478095D02*
X129307857Y-77430476D01*
X129307857Y-77430476D02*
X129403095Y-77430476D01*
X129403095Y-77430476D02*
X129545952Y-77478095D01*
X129545952Y-77478095D02*
X130117380Y-78049523D01*
X130117380Y-78049523D02*
X130117380Y-77430476D01*
%TO.C,TR3*%
X179707380Y-100321904D02*
X179707380Y-99750476D01*
X180707380Y-100036190D02*
X179707380Y-100036190D01*
X180707380Y-98845714D02*
X180231190Y-99179047D01*
X180707380Y-99417142D02*
X179707380Y-99417142D01*
X179707380Y-99417142D02*
X179707380Y-99036190D01*
X179707380Y-99036190D02*
X179755000Y-98940952D01*
X179755000Y-98940952D02*
X179802619Y-98893333D01*
X179802619Y-98893333D02*
X179897857Y-98845714D01*
X179897857Y-98845714D02*
X180040714Y-98845714D01*
X180040714Y-98845714D02*
X180135952Y-98893333D01*
X180135952Y-98893333D02*
X180183571Y-98940952D01*
X180183571Y-98940952D02*
X180231190Y-99036190D01*
X180231190Y-99036190D02*
X180231190Y-99417142D01*
X179707380Y-98512380D02*
X179707380Y-97893333D01*
X179707380Y-97893333D02*
X180088333Y-98226666D01*
X180088333Y-98226666D02*
X180088333Y-98083809D01*
X180088333Y-98083809D02*
X180135952Y-97988571D01*
X180135952Y-97988571D02*
X180183571Y-97940952D01*
X180183571Y-97940952D02*
X180278809Y-97893333D01*
X180278809Y-97893333D02*
X180516904Y-97893333D01*
X180516904Y-97893333D02*
X180612142Y-97940952D01*
X180612142Y-97940952D02*
X180659761Y-97988571D01*
X180659761Y-97988571D02*
X180707380Y-98083809D01*
X180707380Y-98083809D02*
X180707380Y-98369523D01*
X180707380Y-98369523D02*
X180659761Y-98464761D01*
X180659761Y-98464761D02*
X180612142Y-98512380D01*
%TO.C,BO1*%
X106733571Y-77128571D02*
X106781190Y-76985714D01*
X106781190Y-76985714D02*
X106828809Y-76938095D01*
X106828809Y-76938095D02*
X106924047Y-76890476D01*
X106924047Y-76890476D02*
X107066904Y-76890476D01*
X107066904Y-76890476D02*
X107162142Y-76938095D01*
X107162142Y-76938095D02*
X107209761Y-76985714D01*
X107209761Y-76985714D02*
X107257380Y-77080952D01*
X107257380Y-77080952D02*
X107257380Y-77461904D01*
X107257380Y-77461904D02*
X106257380Y-77461904D01*
X106257380Y-77461904D02*
X106257380Y-77128571D01*
X106257380Y-77128571D02*
X106305000Y-77033333D01*
X106305000Y-77033333D02*
X106352619Y-76985714D01*
X106352619Y-76985714D02*
X106447857Y-76938095D01*
X106447857Y-76938095D02*
X106543095Y-76938095D01*
X106543095Y-76938095D02*
X106638333Y-76985714D01*
X106638333Y-76985714D02*
X106685952Y-77033333D01*
X106685952Y-77033333D02*
X106733571Y-77128571D01*
X106733571Y-77128571D02*
X106733571Y-77461904D01*
X106257380Y-76271428D02*
X106257380Y-76080952D01*
X106257380Y-76080952D02*
X106305000Y-75985714D01*
X106305000Y-75985714D02*
X106400238Y-75890476D01*
X106400238Y-75890476D02*
X106590714Y-75842857D01*
X106590714Y-75842857D02*
X106924047Y-75842857D01*
X106924047Y-75842857D02*
X107114523Y-75890476D01*
X107114523Y-75890476D02*
X107209761Y-75985714D01*
X107209761Y-75985714D02*
X107257380Y-76080952D01*
X107257380Y-76080952D02*
X107257380Y-76271428D01*
X107257380Y-76271428D02*
X107209761Y-76366666D01*
X107209761Y-76366666D02*
X107114523Y-76461904D01*
X107114523Y-76461904D02*
X106924047Y-76509523D01*
X106924047Y-76509523D02*
X106590714Y-76509523D01*
X106590714Y-76509523D02*
X106400238Y-76461904D01*
X106400238Y-76461904D02*
X106305000Y-76366666D01*
X106305000Y-76366666D02*
X106257380Y-76271428D01*
X107257380Y-74890476D02*
X107257380Y-75461904D01*
X107257380Y-75176190D02*
X106257380Y-75176190D01*
X106257380Y-75176190D02*
X106400238Y-75271428D01*
X106400238Y-75271428D02*
X106495476Y-75366666D01*
X106495476Y-75366666D02*
X106543095Y-75461904D01*
%TO.C,R8*%
X181948033Y-110603380D02*
X181614700Y-110127190D01*
X181376605Y-110603380D02*
X181376605Y-109603380D01*
X181376605Y-109603380D02*
X181757557Y-109603380D01*
X181757557Y-109603380D02*
X181852795Y-109651000D01*
X181852795Y-109651000D02*
X181900414Y-109698619D01*
X181900414Y-109698619D02*
X181948033Y-109793857D01*
X181948033Y-109793857D02*
X181948033Y-109936714D01*
X181948033Y-109936714D02*
X181900414Y-110031952D01*
X181900414Y-110031952D02*
X181852795Y-110079571D01*
X181852795Y-110079571D02*
X181757557Y-110127190D01*
X181757557Y-110127190D02*
X181376605Y-110127190D01*
X182519462Y-110031952D02*
X182424224Y-109984333D01*
X182424224Y-109984333D02*
X182376605Y-109936714D01*
X182376605Y-109936714D02*
X182328986Y-109841476D01*
X182328986Y-109841476D02*
X182328986Y-109793857D01*
X182328986Y-109793857D02*
X182376605Y-109698619D01*
X182376605Y-109698619D02*
X182424224Y-109651000D01*
X182424224Y-109651000D02*
X182519462Y-109603380D01*
X182519462Y-109603380D02*
X182709938Y-109603380D01*
X182709938Y-109603380D02*
X182805176Y-109651000D01*
X182805176Y-109651000D02*
X182852795Y-109698619D01*
X182852795Y-109698619D02*
X182900414Y-109793857D01*
X182900414Y-109793857D02*
X182900414Y-109841476D01*
X182900414Y-109841476D02*
X182852795Y-109936714D01*
X182852795Y-109936714D02*
X182805176Y-109984333D01*
X182805176Y-109984333D02*
X182709938Y-110031952D01*
X182709938Y-110031952D02*
X182519462Y-110031952D01*
X182519462Y-110031952D02*
X182424224Y-110079571D01*
X182424224Y-110079571D02*
X182376605Y-110127190D01*
X182376605Y-110127190D02*
X182328986Y-110222428D01*
X182328986Y-110222428D02*
X182328986Y-110412904D01*
X182328986Y-110412904D02*
X182376605Y-110508142D01*
X182376605Y-110508142D02*
X182424224Y-110555761D01*
X182424224Y-110555761D02*
X182519462Y-110603380D01*
X182519462Y-110603380D02*
X182709938Y-110603380D01*
X182709938Y-110603380D02*
X182805176Y-110555761D01*
X182805176Y-110555761D02*
X182852795Y-110508142D01*
X182852795Y-110508142D02*
X182900414Y-110412904D01*
X182900414Y-110412904D02*
X182900414Y-110222428D01*
X182900414Y-110222428D02*
X182852795Y-110127190D01*
X182852795Y-110127190D02*
X182805176Y-110079571D01*
X182805176Y-110079571D02*
X182709938Y-110031952D01*
%TO.C,P5*%
X131133380Y-71858094D02*
X130133380Y-71858094D01*
X130133380Y-71858094D02*
X130133380Y-71477142D01*
X130133380Y-71477142D02*
X130181000Y-71381904D01*
X130181000Y-71381904D02*
X130228619Y-71334285D01*
X130228619Y-71334285D02*
X130323857Y-71286666D01*
X130323857Y-71286666D02*
X130466714Y-71286666D01*
X130466714Y-71286666D02*
X130561952Y-71334285D01*
X130561952Y-71334285D02*
X130609571Y-71381904D01*
X130609571Y-71381904D02*
X130657190Y-71477142D01*
X130657190Y-71477142D02*
X130657190Y-71858094D01*
X130133380Y-70381904D02*
X130133380Y-70858094D01*
X130133380Y-70858094D02*
X130609571Y-70905713D01*
X130609571Y-70905713D02*
X130561952Y-70858094D01*
X130561952Y-70858094D02*
X130514333Y-70762856D01*
X130514333Y-70762856D02*
X130514333Y-70524761D01*
X130514333Y-70524761D02*
X130561952Y-70429523D01*
X130561952Y-70429523D02*
X130609571Y-70381904D01*
X130609571Y-70381904D02*
X130704809Y-70334285D01*
X130704809Y-70334285D02*
X130942904Y-70334285D01*
X130942904Y-70334285D02*
X131038142Y-70381904D01*
X131038142Y-70381904D02*
X131085761Y-70429523D01*
X131085761Y-70429523D02*
X131133380Y-70524761D01*
X131133380Y-70524761D02*
X131133380Y-70762856D01*
X131133380Y-70762856D02*
X131085761Y-70858094D01*
X131085761Y-70858094D02*
X131038142Y-70905713D01*
%TO.C,TR7*%
X179707380Y-110481904D02*
X179707380Y-109910476D01*
X180707380Y-110196190D02*
X179707380Y-110196190D01*
X180707380Y-109005714D02*
X180231190Y-109339047D01*
X180707380Y-109577142D02*
X179707380Y-109577142D01*
X179707380Y-109577142D02*
X179707380Y-109196190D01*
X179707380Y-109196190D02*
X179755000Y-109100952D01*
X179755000Y-109100952D02*
X179802619Y-109053333D01*
X179802619Y-109053333D02*
X179897857Y-109005714D01*
X179897857Y-109005714D02*
X180040714Y-109005714D01*
X180040714Y-109005714D02*
X180135952Y-109053333D01*
X180135952Y-109053333D02*
X180183571Y-109100952D01*
X180183571Y-109100952D02*
X180231190Y-109196190D01*
X180231190Y-109196190D02*
X180231190Y-109577142D01*
X179707380Y-108672380D02*
X179707380Y-108005714D01*
X179707380Y-108005714D02*
X180707380Y-108434285D01*
%TO.C,P7*%
X180917380Y-71858094D02*
X179917380Y-71858094D01*
X179917380Y-71858094D02*
X179917380Y-71477142D01*
X179917380Y-71477142D02*
X179965000Y-71381904D01*
X179965000Y-71381904D02*
X180012619Y-71334285D01*
X180012619Y-71334285D02*
X180107857Y-71286666D01*
X180107857Y-71286666D02*
X180250714Y-71286666D01*
X180250714Y-71286666D02*
X180345952Y-71334285D01*
X180345952Y-71334285D02*
X180393571Y-71381904D01*
X180393571Y-71381904D02*
X180441190Y-71477142D01*
X180441190Y-71477142D02*
X180441190Y-71858094D01*
X179917380Y-70953332D02*
X179917380Y-70286666D01*
X179917380Y-70286666D02*
X180917380Y-70715237D01*
%TO.C,TR8*%
X186698095Y-113897380D02*
X187269523Y-113897380D01*
X186983809Y-114897380D02*
X186983809Y-113897380D01*
X188174285Y-114897380D02*
X187840952Y-114421190D01*
X187602857Y-114897380D02*
X187602857Y-113897380D01*
X187602857Y-113897380D02*
X187983809Y-113897380D01*
X187983809Y-113897380D02*
X188079047Y-113945000D01*
X188079047Y-113945000D02*
X188126666Y-113992619D01*
X188126666Y-113992619D02*
X188174285Y-114087857D01*
X188174285Y-114087857D02*
X188174285Y-114230714D01*
X188174285Y-114230714D02*
X188126666Y-114325952D01*
X188126666Y-114325952D02*
X188079047Y-114373571D01*
X188079047Y-114373571D02*
X187983809Y-114421190D01*
X187983809Y-114421190D02*
X187602857Y-114421190D01*
X188745714Y-114325952D02*
X188650476Y-114278333D01*
X188650476Y-114278333D02*
X188602857Y-114230714D01*
X188602857Y-114230714D02*
X188555238Y-114135476D01*
X188555238Y-114135476D02*
X188555238Y-114087857D01*
X188555238Y-114087857D02*
X188602857Y-113992619D01*
X188602857Y-113992619D02*
X188650476Y-113945000D01*
X188650476Y-113945000D02*
X188745714Y-113897380D01*
X188745714Y-113897380D02*
X188936190Y-113897380D01*
X188936190Y-113897380D02*
X189031428Y-113945000D01*
X189031428Y-113945000D02*
X189079047Y-113992619D01*
X189079047Y-113992619D02*
X189126666Y-114087857D01*
X189126666Y-114087857D02*
X189126666Y-114135476D01*
X189126666Y-114135476D02*
X189079047Y-114230714D01*
X189079047Y-114230714D02*
X189031428Y-114278333D01*
X189031428Y-114278333D02*
X188936190Y-114325952D01*
X188936190Y-114325952D02*
X188745714Y-114325952D01*
X188745714Y-114325952D02*
X188650476Y-114373571D01*
X188650476Y-114373571D02*
X188602857Y-114421190D01*
X188602857Y-114421190D02*
X188555238Y-114516428D01*
X188555238Y-114516428D02*
X188555238Y-114706904D01*
X188555238Y-114706904D02*
X188602857Y-114802142D01*
X188602857Y-114802142D02*
X188650476Y-114849761D01*
X188650476Y-114849761D02*
X188745714Y-114897380D01*
X188745714Y-114897380D02*
X188936190Y-114897380D01*
X188936190Y-114897380D02*
X189031428Y-114849761D01*
X189031428Y-114849761D02*
X189079047Y-114802142D01*
X189079047Y-114802142D02*
X189126666Y-114706904D01*
X189126666Y-114706904D02*
X189126666Y-114516428D01*
X189126666Y-114516428D02*
X189079047Y-114421190D01*
X189079047Y-114421190D02*
X189031428Y-114373571D01*
X189031428Y-114373571D02*
X188936190Y-114325952D01*
%TO.C,C1*%
X113879333Y-105301142D02*
X113831714Y-105348761D01*
X113831714Y-105348761D02*
X113688857Y-105396380D01*
X113688857Y-105396380D02*
X113593619Y-105396380D01*
X113593619Y-105396380D02*
X113450762Y-105348761D01*
X113450762Y-105348761D02*
X113355524Y-105253523D01*
X113355524Y-105253523D02*
X113307905Y-105158285D01*
X113307905Y-105158285D02*
X113260286Y-104967809D01*
X113260286Y-104967809D02*
X113260286Y-104824952D01*
X113260286Y-104824952D02*
X113307905Y-104634476D01*
X113307905Y-104634476D02*
X113355524Y-104539238D01*
X113355524Y-104539238D02*
X113450762Y-104444000D01*
X113450762Y-104444000D02*
X113593619Y-104396380D01*
X113593619Y-104396380D02*
X113688857Y-104396380D01*
X113688857Y-104396380D02*
X113831714Y-104444000D01*
X113831714Y-104444000D02*
X113879333Y-104491619D01*
X114831714Y-105396380D02*
X114260286Y-105396380D01*
X114546000Y-105396380D02*
X114546000Y-104396380D01*
X114546000Y-104396380D02*
X114450762Y-104539238D01*
X114450762Y-104539238D02*
X114355524Y-104634476D01*
X114355524Y-104634476D02*
X114260286Y-104682095D01*
%TO.C,BO6*%
X129593571Y-87288571D02*
X129641190Y-87145714D01*
X129641190Y-87145714D02*
X129688809Y-87098095D01*
X129688809Y-87098095D02*
X129784047Y-87050476D01*
X129784047Y-87050476D02*
X129926904Y-87050476D01*
X129926904Y-87050476D02*
X130022142Y-87098095D01*
X130022142Y-87098095D02*
X130069761Y-87145714D01*
X130069761Y-87145714D02*
X130117380Y-87240952D01*
X130117380Y-87240952D02*
X130117380Y-87621904D01*
X130117380Y-87621904D02*
X129117380Y-87621904D01*
X129117380Y-87621904D02*
X129117380Y-87288571D01*
X129117380Y-87288571D02*
X129165000Y-87193333D01*
X129165000Y-87193333D02*
X129212619Y-87145714D01*
X129212619Y-87145714D02*
X129307857Y-87098095D01*
X129307857Y-87098095D02*
X129403095Y-87098095D01*
X129403095Y-87098095D02*
X129498333Y-87145714D01*
X129498333Y-87145714D02*
X129545952Y-87193333D01*
X129545952Y-87193333D02*
X129593571Y-87288571D01*
X129593571Y-87288571D02*
X129593571Y-87621904D01*
X129117380Y-86431428D02*
X129117380Y-86240952D01*
X129117380Y-86240952D02*
X129165000Y-86145714D01*
X129165000Y-86145714D02*
X129260238Y-86050476D01*
X129260238Y-86050476D02*
X129450714Y-86002857D01*
X129450714Y-86002857D02*
X129784047Y-86002857D01*
X129784047Y-86002857D02*
X129974523Y-86050476D01*
X129974523Y-86050476D02*
X130069761Y-86145714D01*
X130069761Y-86145714D02*
X130117380Y-86240952D01*
X130117380Y-86240952D02*
X130117380Y-86431428D01*
X130117380Y-86431428D02*
X130069761Y-86526666D01*
X130069761Y-86526666D02*
X129974523Y-86621904D01*
X129974523Y-86621904D02*
X129784047Y-86669523D01*
X129784047Y-86669523D02*
X129450714Y-86669523D01*
X129450714Y-86669523D02*
X129260238Y-86621904D01*
X129260238Y-86621904D02*
X129165000Y-86526666D01*
X129165000Y-86526666D02*
X129117380Y-86431428D01*
X129117380Y-85145714D02*
X129117380Y-85336190D01*
X129117380Y-85336190D02*
X129165000Y-85431428D01*
X129165000Y-85431428D02*
X129212619Y-85479047D01*
X129212619Y-85479047D02*
X129355476Y-85574285D01*
X129355476Y-85574285D02*
X129545952Y-85621904D01*
X129545952Y-85621904D02*
X129926904Y-85621904D01*
X129926904Y-85621904D02*
X130022142Y-85574285D01*
X130022142Y-85574285D02*
X130069761Y-85526666D01*
X130069761Y-85526666D02*
X130117380Y-85431428D01*
X130117380Y-85431428D02*
X130117380Y-85240952D01*
X130117380Y-85240952D02*
X130069761Y-85145714D01*
X130069761Y-85145714D02*
X130022142Y-85098095D01*
X130022142Y-85098095D02*
X129926904Y-85050476D01*
X129926904Y-85050476D02*
X129688809Y-85050476D01*
X129688809Y-85050476D02*
X129593571Y-85098095D01*
X129593571Y-85098095D02*
X129545952Y-85145714D01*
X129545952Y-85145714D02*
X129498333Y-85240952D01*
X129498333Y-85240952D02*
X129498333Y-85431428D01*
X129498333Y-85431428D02*
X129545952Y-85526666D01*
X129545952Y-85526666D02*
X129593571Y-85574285D01*
X129593571Y-85574285D02*
X129688809Y-85621904D01*
%TO.C,J1*%
X115646666Y-113667380D02*
X115646666Y-114381666D01*
X115646666Y-114381666D02*
X115599047Y-114524523D01*
X115599047Y-114524523D02*
X115503809Y-114619761D01*
X115503809Y-114619761D02*
X115360952Y-114667380D01*
X115360952Y-114667380D02*
X115265714Y-114667380D01*
X116646666Y-114667380D02*
X116075238Y-114667380D01*
X116360952Y-114667380D02*
X116360952Y-113667380D01*
X116360952Y-113667380D02*
X116265714Y-113810238D01*
X116265714Y-113810238D02*
X116170476Y-113905476D01*
X116170476Y-113905476D02*
X116075238Y-113953095D01*
%TO.C,R6*%
X161885333Y-110603380D02*
X161552000Y-110127190D01*
X161313905Y-110603380D02*
X161313905Y-109603380D01*
X161313905Y-109603380D02*
X161694857Y-109603380D01*
X161694857Y-109603380D02*
X161790095Y-109651000D01*
X161790095Y-109651000D02*
X161837714Y-109698619D01*
X161837714Y-109698619D02*
X161885333Y-109793857D01*
X161885333Y-109793857D02*
X161885333Y-109936714D01*
X161885333Y-109936714D02*
X161837714Y-110031952D01*
X161837714Y-110031952D02*
X161790095Y-110079571D01*
X161790095Y-110079571D02*
X161694857Y-110127190D01*
X161694857Y-110127190D02*
X161313905Y-110127190D01*
X162742476Y-109603380D02*
X162552000Y-109603380D01*
X162552000Y-109603380D02*
X162456762Y-109651000D01*
X162456762Y-109651000D02*
X162409143Y-109698619D01*
X162409143Y-109698619D02*
X162313905Y-109841476D01*
X162313905Y-109841476D02*
X162266286Y-110031952D01*
X162266286Y-110031952D02*
X162266286Y-110412904D01*
X162266286Y-110412904D02*
X162313905Y-110508142D01*
X162313905Y-110508142D02*
X162361524Y-110555761D01*
X162361524Y-110555761D02*
X162456762Y-110603380D01*
X162456762Y-110603380D02*
X162647238Y-110603380D01*
X162647238Y-110603380D02*
X162742476Y-110555761D01*
X162742476Y-110555761D02*
X162790095Y-110508142D01*
X162790095Y-110508142D02*
X162837714Y-110412904D01*
X162837714Y-110412904D02*
X162837714Y-110174809D01*
X162837714Y-110174809D02*
X162790095Y-110079571D01*
X162790095Y-110079571D02*
X162742476Y-110031952D01*
X162742476Y-110031952D02*
X162647238Y-109984333D01*
X162647238Y-109984333D02*
X162456762Y-109984333D01*
X162456762Y-109984333D02*
X162361524Y-110031952D01*
X162361524Y-110031952D02*
X162313905Y-110079571D01*
X162313905Y-110079571D02*
X162266286Y-110174809D01*
%TO.C,P3*%
X185997380Y-120118094D02*
X184997380Y-120118094D01*
X184997380Y-120118094D02*
X184997380Y-119737142D01*
X184997380Y-119737142D02*
X185045000Y-119641904D01*
X185045000Y-119641904D02*
X185092619Y-119594285D01*
X185092619Y-119594285D02*
X185187857Y-119546666D01*
X185187857Y-119546666D02*
X185330714Y-119546666D01*
X185330714Y-119546666D02*
X185425952Y-119594285D01*
X185425952Y-119594285D02*
X185473571Y-119641904D01*
X185473571Y-119641904D02*
X185521190Y-119737142D01*
X185521190Y-119737142D02*
X185521190Y-120118094D01*
X184997380Y-119213332D02*
X184997380Y-118594285D01*
X184997380Y-118594285D02*
X185378333Y-118927618D01*
X185378333Y-118927618D02*
X185378333Y-118784761D01*
X185378333Y-118784761D02*
X185425952Y-118689523D01*
X185425952Y-118689523D02*
X185473571Y-118641904D01*
X185473571Y-118641904D02*
X185568809Y-118594285D01*
X185568809Y-118594285D02*
X185806904Y-118594285D01*
X185806904Y-118594285D02*
X185902142Y-118641904D01*
X185902142Y-118641904D02*
X185949761Y-118689523D01*
X185949761Y-118689523D02*
X185997380Y-118784761D01*
X185997380Y-118784761D02*
X185997380Y-119070475D01*
X185997380Y-119070475D02*
X185949761Y-119165713D01*
X185949761Y-119165713D02*
X185902142Y-119213332D01*
%TO.C,TR2*%
X169547380Y-100321904D02*
X169547380Y-99750476D01*
X170547380Y-100036190D02*
X169547380Y-100036190D01*
X170547380Y-98845714D02*
X170071190Y-99179047D01*
X170547380Y-99417142D02*
X169547380Y-99417142D01*
X169547380Y-99417142D02*
X169547380Y-99036190D01*
X169547380Y-99036190D02*
X169595000Y-98940952D01*
X169595000Y-98940952D02*
X169642619Y-98893333D01*
X169642619Y-98893333D02*
X169737857Y-98845714D01*
X169737857Y-98845714D02*
X169880714Y-98845714D01*
X169880714Y-98845714D02*
X169975952Y-98893333D01*
X169975952Y-98893333D02*
X170023571Y-98940952D01*
X170023571Y-98940952D02*
X170071190Y-99036190D01*
X170071190Y-99036190D02*
X170071190Y-99417142D01*
X169642619Y-98464761D02*
X169595000Y-98417142D01*
X169595000Y-98417142D02*
X169547380Y-98321904D01*
X169547380Y-98321904D02*
X169547380Y-98083809D01*
X169547380Y-98083809D02*
X169595000Y-97988571D01*
X169595000Y-97988571D02*
X169642619Y-97940952D01*
X169642619Y-97940952D02*
X169737857Y-97893333D01*
X169737857Y-97893333D02*
X169833095Y-97893333D01*
X169833095Y-97893333D02*
X169975952Y-97940952D01*
X169975952Y-97940952D02*
X170547380Y-98512380D01*
X170547380Y-98512380D02*
X170547380Y-97893333D01*
%TO.C,P6*%
X156741905Y-74027380D02*
X156741905Y-73027380D01*
X156741905Y-73027380D02*
X157122857Y-73027380D01*
X157122857Y-73027380D02*
X157218095Y-73075000D01*
X157218095Y-73075000D02*
X157265714Y-73122619D01*
X157265714Y-73122619D02*
X157313333Y-73217857D01*
X157313333Y-73217857D02*
X157313333Y-73360714D01*
X157313333Y-73360714D02*
X157265714Y-73455952D01*
X157265714Y-73455952D02*
X157218095Y-73503571D01*
X157218095Y-73503571D02*
X157122857Y-73551190D01*
X157122857Y-73551190D02*
X156741905Y-73551190D01*
X158170476Y-73027380D02*
X157980000Y-73027380D01*
X157980000Y-73027380D02*
X157884762Y-73075000D01*
X157884762Y-73075000D02*
X157837143Y-73122619D01*
X157837143Y-73122619D02*
X157741905Y-73265476D01*
X157741905Y-73265476D02*
X157694286Y-73455952D01*
X157694286Y-73455952D02*
X157694286Y-73836904D01*
X157694286Y-73836904D02*
X157741905Y-73932142D01*
X157741905Y-73932142D02*
X157789524Y-73979761D01*
X157789524Y-73979761D02*
X157884762Y-74027380D01*
X157884762Y-74027380D02*
X158075238Y-74027380D01*
X158075238Y-74027380D02*
X158170476Y-73979761D01*
X158170476Y-73979761D02*
X158218095Y-73932142D01*
X158218095Y-73932142D02*
X158265714Y-73836904D01*
X158265714Y-73836904D02*
X158265714Y-73598809D01*
X158265714Y-73598809D02*
X158218095Y-73503571D01*
X158218095Y-73503571D02*
X158170476Y-73455952D01*
X158170476Y-73455952D02*
X158075238Y-73408333D01*
X158075238Y-73408333D02*
X157884762Y-73408333D01*
X157884762Y-73408333D02*
X157789524Y-73455952D01*
X157789524Y-73455952D02*
X157741905Y-73503571D01*
X157741905Y-73503571D02*
X157694286Y-73598809D01*
%TO.C,P2*%
X163137380Y-120118094D02*
X162137380Y-120118094D01*
X162137380Y-120118094D02*
X162137380Y-119737142D01*
X162137380Y-119737142D02*
X162185000Y-119641904D01*
X162185000Y-119641904D02*
X162232619Y-119594285D01*
X162232619Y-119594285D02*
X162327857Y-119546666D01*
X162327857Y-119546666D02*
X162470714Y-119546666D01*
X162470714Y-119546666D02*
X162565952Y-119594285D01*
X162565952Y-119594285D02*
X162613571Y-119641904D01*
X162613571Y-119641904D02*
X162661190Y-119737142D01*
X162661190Y-119737142D02*
X162661190Y-120118094D01*
X162232619Y-119165713D02*
X162185000Y-119118094D01*
X162185000Y-119118094D02*
X162137380Y-119022856D01*
X162137380Y-119022856D02*
X162137380Y-118784761D01*
X162137380Y-118784761D02*
X162185000Y-118689523D01*
X162185000Y-118689523D02*
X162232619Y-118641904D01*
X162232619Y-118641904D02*
X162327857Y-118594285D01*
X162327857Y-118594285D02*
X162423095Y-118594285D01*
X162423095Y-118594285D02*
X162565952Y-118641904D01*
X162565952Y-118641904D02*
X163137380Y-119213332D01*
X163137380Y-119213332D02*
X163137380Y-118594285D01*
%TO.C,BO4*%
X170233571Y-79668571D02*
X170281190Y-79525714D01*
X170281190Y-79525714D02*
X170328809Y-79478095D01*
X170328809Y-79478095D02*
X170424047Y-79430476D01*
X170424047Y-79430476D02*
X170566904Y-79430476D01*
X170566904Y-79430476D02*
X170662142Y-79478095D01*
X170662142Y-79478095D02*
X170709761Y-79525714D01*
X170709761Y-79525714D02*
X170757380Y-79620952D01*
X170757380Y-79620952D02*
X170757380Y-80001904D01*
X170757380Y-80001904D02*
X169757380Y-80001904D01*
X169757380Y-80001904D02*
X169757380Y-79668571D01*
X169757380Y-79668571D02*
X169805000Y-79573333D01*
X169805000Y-79573333D02*
X169852619Y-79525714D01*
X169852619Y-79525714D02*
X169947857Y-79478095D01*
X169947857Y-79478095D02*
X170043095Y-79478095D01*
X170043095Y-79478095D02*
X170138333Y-79525714D01*
X170138333Y-79525714D02*
X170185952Y-79573333D01*
X170185952Y-79573333D02*
X170233571Y-79668571D01*
X170233571Y-79668571D02*
X170233571Y-80001904D01*
X169757380Y-78811428D02*
X169757380Y-78620952D01*
X169757380Y-78620952D02*
X169805000Y-78525714D01*
X169805000Y-78525714D02*
X169900238Y-78430476D01*
X169900238Y-78430476D02*
X170090714Y-78382857D01*
X170090714Y-78382857D02*
X170424047Y-78382857D01*
X170424047Y-78382857D02*
X170614523Y-78430476D01*
X170614523Y-78430476D02*
X170709761Y-78525714D01*
X170709761Y-78525714D02*
X170757380Y-78620952D01*
X170757380Y-78620952D02*
X170757380Y-78811428D01*
X170757380Y-78811428D02*
X170709761Y-78906666D01*
X170709761Y-78906666D02*
X170614523Y-79001904D01*
X170614523Y-79001904D02*
X170424047Y-79049523D01*
X170424047Y-79049523D02*
X170090714Y-79049523D01*
X170090714Y-79049523D02*
X169900238Y-79001904D01*
X169900238Y-79001904D02*
X169805000Y-78906666D01*
X169805000Y-78906666D02*
X169757380Y-78811428D01*
X170090714Y-77525714D02*
X170757380Y-77525714D01*
X169709761Y-77763809D02*
X170424047Y-78001904D01*
X170424047Y-78001904D02*
X170424047Y-77382857D01*
D11*
%TO.C,R5*%
X151103064Y-112495000D02*
X150648936Y-112495000D01*
X151103064Y-111025000D02*
X150648936Y-111025000D01*
%TO.C,PAD5-1*%
X130743000Y-114487000D02*
X129413000Y-114487000D01*
X130743000Y-113157000D02*
X130743000Y-114487000D01*
X130743000Y-111887000D02*
X130743000Y-94047000D01*
X130743000Y-111887000D02*
X128083000Y-111887000D01*
X130743000Y-94047000D02*
X128083000Y-94047000D01*
X128083000Y-111887000D02*
X128083000Y-94047000D01*
%TO.C,P1*%
X140910000Y-120456000D02*
X140910000Y-119126000D01*
X142240000Y-120456000D02*
X140910000Y-120456000D01*
X143510000Y-120456000D02*
X161350000Y-120456000D01*
X143510000Y-120456000D02*
X143510000Y-117796000D01*
X161350000Y-120456000D02*
X161350000Y-117796000D01*
X143510000Y-117796000D02*
X161350000Y-117796000D01*
%TO.C,TR4*%
X189290000Y-97790000D02*
X189290000Y-92650000D01*
X189290000Y-97790000D02*
X186630000Y-97790000D01*
X189290000Y-92650000D02*
X186630000Y-92650000D01*
X187960000Y-100390000D02*
X186630000Y-100390000D01*
X186630000Y-100390000D02*
X186630000Y-99060000D01*
X186630000Y-97790000D02*
X186630000Y-92650000D01*
%TO.C,TR6*%
X168970000Y-110490000D02*
X168970000Y-105350000D01*
X168970000Y-110490000D02*
X166310000Y-110490000D01*
X168970000Y-105350000D02*
X166310000Y-105350000D01*
X167640000Y-113090000D02*
X166310000Y-113090000D01*
X166310000Y-113090000D02*
X166310000Y-111760000D01*
X166310000Y-110490000D02*
X166310000Y-105350000D01*
%TO.C,5VReg1*%
X120545000Y-100365000D02*
X120545000Y-100095000D01*
X120545000Y-100095000D02*
X123375000Y-100095000D01*
X120545000Y-93735000D02*
X121645000Y-93735000D01*
X120545000Y-93465000D02*
X120545000Y-93735000D01*
X114125000Y-100365000D02*
X120545000Y-100365000D01*
X114125000Y-93465000D02*
X120545000Y-93465000D01*
%TO.C,BO5*%
X107890000Y-85150000D02*
X107890000Y-83820000D01*
X109220000Y-85150000D02*
X107890000Y-85150000D01*
X110490000Y-85150000D02*
X123250000Y-85150000D01*
X110490000Y-85150000D02*
X110490000Y-82490000D01*
X123250000Y-85150000D02*
X123250000Y-82490000D01*
X110490000Y-82490000D02*
X123250000Y-82490000D01*
%TO.C,TR5*%
X156270000Y-110490000D02*
X156270000Y-105350000D01*
X156270000Y-110490000D02*
X153610000Y-110490000D01*
X156270000Y-105350000D02*
X153610000Y-105350000D01*
X154940000Y-113090000D02*
X153610000Y-113090000D01*
X153610000Y-113090000D02*
X153610000Y-111760000D01*
X153610000Y-110490000D02*
X153610000Y-105350000D01*
%TO.C,BO8*%
X171390000Y-87690000D02*
X171390000Y-86360000D01*
X172720000Y-87690000D02*
X171390000Y-87690000D01*
X173990000Y-87690000D02*
X186750000Y-87690000D01*
X173990000Y-87690000D02*
X173990000Y-85030000D01*
X186750000Y-87690000D02*
X186750000Y-85030000D01*
X173990000Y-85030000D02*
X186750000Y-85030000D01*
%TO.C,BO3*%
X151070000Y-80070000D02*
X151070000Y-78740000D01*
X152400000Y-80070000D02*
X151070000Y-80070000D01*
X153670000Y-80070000D02*
X166430000Y-80070000D01*
X153670000Y-80070000D02*
X153670000Y-77410000D01*
X166430000Y-80070000D02*
X166430000Y-77410000D01*
X153670000Y-77410000D02*
X166430000Y-77410000D01*
%TO.C,TR1*%
X156270000Y-97790000D02*
X156270000Y-92650000D01*
X156270000Y-97790000D02*
X153610000Y-97790000D01*
X156270000Y-92650000D02*
X153610000Y-92650000D01*
X154940000Y-100390000D02*
X153610000Y-100390000D01*
X153610000Y-100390000D02*
X153610000Y-99060000D01*
X153610000Y-97790000D02*
X153610000Y-92650000D01*
%TO.C,BO7*%
X151070000Y-87690000D02*
X151070000Y-86360000D01*
X152400000Y-87690000D02*
X151070000Y-87690000D01*
X153670000Y-87690000D02*
X166430000Y-87690000D01*
X153670000Y-87690000D02*
X153670000Y-85030000D01*
X166430000Y-87690000D02*
X166430000Y-85030000D01*
X153670000Y-85030000D02*
X166430000Y-85030000D01*
%TO.C,P4*%
X206950000Y-69790000D02*
X208280000Y-69790000D01*
X206950000Y-71120000D02*
X206950000Y-69790000D01*
X206950000Y-72390000D02*
X206950000Y-115630000D01*
X206950000Y-72390000D02*
X209550000Y-72390000D01*
X206950000Y-115630000D02*
X212150000Y-115630000D01*
X209550000Y-69790000D02*
X212150000Y-69790000D01*
X209550000Y-72390000D02*
X209550000Y-69790000D01*
X212150000Y-69790000D02*
X212150000Y-115630000D01*
%TO.C,R4*%
X184107064Y-99795000D02*
X183652936Y-99795000D01*
X184107064Y-98325000D02*
X183652936Y-98325000D01*
%TO.C,R1*%
X151357064Y-99795000D02*
X150902936Y-99795000D01*
X151357064Y-98325000D02*
X150902936Y-98325000D01*
%TO.C,PAD1-1*%
X141030000Y-114487000D02*
X139700000Y-114487000D01*
X141030000Y-113157000D02*
X141030000Y-114487000D01*
X141030000Y-111887000D02*
X141030000Y-94047000D01*
X141030000Y-111887000D02*
X138370000Y-111887000D01*
X141030000Y-94047000D02*
X138370000Y-94047000D01*
X138370000Y-111887000D02*
X138370000Y-94047000D01*
D12*
%TO.C,C2*%
X124182600Y-88967500D02*
G75*
G03*
X124182600Y-88967500I-76200J0D01*
G01*
D11*
%TO.C,R3*%
X173947064Y-99795000D02*
X173492936Y-99795000D01*
X173947064Y-98325000D02*
X173492936Y-98325000D01*
%TO.C,R2*%
X163787064Y-99795000D02*
X163332936Y-99795000D01*
X163787064Y-98325000D02*
X163332936Y-98325000D01*
%TO.C,R7*%
X173947064Y-112495000D02*
X173492936Y-112495000D01*
X173947064Y-111025000D02*
X173492936Y-111025000D01*
%TO.C,BO2*%
X130750000Y-80070000D02*
X130750000Y-78740000D01*
X132080000Y-80070000D02*
X130750000Y-80070000D01*
X133350000Y-80070000D02*
X146110000Y-80070000D01*
X133350000Y-80070000D02*
X133350000Y-77410000D01*
X146110000Y-80070000D02*
X146110000Y-77410000D01*
X133350000Y-77410000D02*
X146110000Y-77410000D01*
%TO.C,TR3*%
X179130000Y-97790000D02*
X179130000Y-92650000D01*
X179130000Y-97790000D02*
X176470000Y-97790000D01*
X179130000Y-92650000D02*
X176470000Y-92650000D01*
X177800000Y-100390000D02*
X176470000Y-100390000D01*
X176470000Y-100390000D02*
X176470000Y-99060000D01*
X176470000Y-97790000D02*
X176470000Y-92650000D01*
%TO.C,BO1*%
X107890000Y-77530000D02*
X107890000Y-76200000D01*
X109220000Y-77530000D02*
X107890000Y-77530000D01*
X110490000Y-77530000D02*
X123250000Y-77530000D01*
X110490000Y-77530000D02*
X110490000Y-74870000D01*
X123250000Y-77530000D02*
X123250000Y-74870000D01*
X110490000Y-74870000D02*
X123250000Y-74870000D01*
%TO.C,R8*%
X184107064Y-112495000D02*
X183652936Y-112495000D01*
X184107064Y-111025000D02*
X183652936Y-111025000D01*
%TO.C,P5*%
X131766000Y-72450000D02*
X131766000Y-71120000D01*
X133096000Y-72450000D02*
X131766000Y-72450000D01*
X134366000Y-72450000D02*
X157286000Y-72450000D01*
X134366000Y-72450000D02*
X134366000Y-69790000D01*
X157286000Y-72450000D02*
X157286000Y-69790000D01*
X134366000Y-69790000D02*
X157286000Y-69790000D01*
%TO.C,TR7*%
X179130000Y-110490000D02*
X179130000Y-105350000D01*
X179130000Y-110490000D02*
X176470000Y-110490000D01*
X179130000Y-105350000D02*
X176470000Y-105350000D01*
X177800000Y-113090000D02*
X176470000Y-113090000D01*
X176470000Y-113090000D02*
X176470000Y-111760000D01*
X176470000Y-110490000D02*
X176470000Y-105350000D01*
%TO.C,P7*%
X181550000Y-72450000D02*
X181550000Y-71120000D01*
X182880000Y-72450000D02*
X181550000Y-72450000D01*
X184150000Y-72450000D02*
X201990000Y-72450000D01*
X184150000Y-72450000D02*
X184150000Y-69790000D01*
X201990000Y-72450000D02*
X201990000Y-69790000D01*
X184150000Y-69790000D02*
X201990000Y-69790000D01*
%TO.C,TR8*%
X189290000Y-110490000D02*
X189290000Y-105350000D01*
X189290000Y-110490000D02*
X186630000Y-110490000D01*
X189290000Y-105350000D02*
X186630000Y-105350000D01*
X187960000Y-113090000D02*
X186630000Y-113090000D01*
X186630000Y-113090000D02*
X186630000Y-111760000D01*
X186630000Y-110490000D02*
X186630000Y-105350000D01*
%TO.C,LED1*%
X201990000Y-115630000D02*
X200660000Y-115630000D01*
X201990000Y-114300000D02*
X201990000Y-115630000D01*
X201990000Y-113030000D02*
X201990000Y-74870000D01*
X201990000Y-113030000D02*
X199330000Y-113030000D01*
X201990000Y-74870000D02*
X199330000Y-74870000D01*
X199330000Y-113030000D02*
X199330000Y-74870000D01*
D12*
%TO.C,C1*%
X117032450Y-103388000D02*
X116647550Y-103388000D01*
X116647550Y-104892000D02*
X117032450Y-104892000D01*
D11*
%TO.C,BO6*%
X130750000Y-87690000D02*
X130750000Y-86360000D01*
X132080000Y-87690000D02*
X130750000Y-87690000D01*
X133350000Y-87690000D02*
X146110000Y-87690000D01*
X133350000Y-87690000D02*
X133350000Y-85030000D01*
X146110000Y-87690000D02*
X146110000Y-85030000D01*
X133350000Y-85030000D02*
X146110000Y-85030000D01*
%TO.C,J1*%
X114790000Y-109190000D02*
X114790000Y-112000000D01*
X108730000Y-109190000D02*
X114790000Y-109190000D01*
X101570000Y-109190000D02*
X104630000Y-109190000D01*
X114980000Y-113300000D02*
X114980000Y-115300000D01*
X114790000Y-116600000D02*
X114790000Y-119410000D01*
X114790000Y-119410000D02*
X108730000Y-119410000D01*
X104630000Y-119410000D02*
X101570000Y-119410000D01*
X101570000Y-119410000D02*
X101570000Y-109190000D01*
%TO.C,R6*%
X163787064Y-112495000D02*
X163332936Y-112495000D01*
X163787064Y-111025000D02*
X163332936Y-111025000D01*
%TO.C,P3*%
X186630000Y-120710000D02*
X186630000Y-119380000D01*
X187960000Y-120710000D02*
X186630000Y-120710000D01*
X189230000Y-120710000D02*
X207070000Y-120710000D01*
X189230000Y-120710000D02*
X189230000Y-118050000D01*
X207070000Y-120710000D02*
X207070000Y-118050000D01*
X189230000Y-118050000D02*
X207070000Y-118050000D01*
%TO.C,TR2*%
X168970000Y-97790000D02*
X168970000Y-92650000D01*
X168970000Y-97790000D02*
X166310000Y-97790000D01*
X168970000Y-92650000D02*
X166310000Y-92650000D01*
X167640000Y-100390000D02*
X166310000Y-100390000D01*
X166310000Y-100390000D02*
X166310000Y-99060000D01*
X166310000Y-97790000D02*
X166310000Y-92650000D01*
%TO.C,P6*%
X158690000Y-72450000D02*
X158690000Y-71120000D01*
X160020000Y-72450000D02*
X158690000Y-72450000D01*
X161290000Y-72450000D02*
X179130000Y-72450000D01*
X161290000Y-72450000D02*
X161290000Y-69790000D01*
X179130000Y-72450000D02*
X179130000Y-69790000D01*
X161290000Y-69790000D02*
X179130000Y-69790000D01*
%TO.C,P2*%
X163770000Y-120710000D02*
X163770000Y-119380000D01*
X165100000Y-120710000D02*
X163770000Y-120710000D01*
X166370000Y-120710000D02*
X184210000Y-120710000D01*
X166370000Y-120710000D02*
X166370000Y-118050000D01*
X184210000Y-120710000D02*
X184210000Y-118050000D01*
X166370000Y-118050000D02*
X184210000Y-118050000D01*
%TO.C,BO4*%
X171390000Y-80070000D02*
X171390000Y-78740000D01*
X172720000Y-80070000D02*
X171390000Y-80070000D01*
X173990000Y-80070000D02*
X186750000Y-80070000D01*
X173990000Y-80070000D02*
X173990000Y-77410000D01*
X186750000Y-80070000D02*
X186750000Y-77410000D01*
X173990000Y-77410000D02*
X186750000Y-77410000D01*
%TD*%
M02*
